<svg xmlns="http://www.w3.org/2000/svg" width="90" height="87" viewBox="0 0 90 87">
    <g fill="none" fill-rule="evenodd">
        <path fill="#FEFEFE" d="M59.281 49.298v-2.144H58.26v-.26h2.404v.26h-1.012v2.144zM62.798 49.298l-.07-2.06-.734 1.371h-.242l-.746-1.353-.073 2.042h-.269l.128-2.405h.31l.774 1.431.747-1.43h.318l.128 2.404z"/>
        <path fill="#806FB0" d="M26.163 23.86c0-11.199 9.564-20.276 21.362-20.276 11.799 0 21.363 9.077 21.363 20.275 0 11.198-9.564 20.276-21.363 20.276-11.798 0-21.362-9.078-21.362-20.276m-6.38.19c0 13.28 11.036 24.047 24.649 24.047 13.613 0 24.65-10.767 24.65-24.048C69.081 10.767 58.044 0 44.431 0c-13.613 0-24.65 10.767-24.65 24.048"/>
        <path fill="#B7B3D9" d="M47.492 3.607C41.92 3.607 36.84 5.63 33.01 8.95c3.79-2.622 9.657-4.163 14.693-3.696 11.194 1.039 22.269 10.483 21.26 21.2.079-.715.12-1.44.12-2.175 0-11.416-9.667-20.67-21.59-20.67M29.086 33.008c.8-3.194 4.322-5.058 9.002-5.155h.003a3.251 3.251 0 0 1-.197-.198h-.008c-5.107.02-9.198 1.503-10.937 4.006a20.062 20.062 0 0 0 2.98 5.445c-.737-1.449-1.151-2.87-.843-4.098m17.34-4.125c-.1.109-.192.224-.273.344a23.03 23.03 0 0 1 1.588.624v.001c3.822 1.683 6.681 4.218 7.651 6.85v.001c.063.17.118.34.164.51l.004.013c.03.11.057.22.08.331l.001.01c.012.053.022.107.031.16l.004.02a5.42 5.42 0 0 1 .061.498l.002.022.009.156v.004c.003.052.003.103.004.156v.028a4.438 4.438 0 0 1-.01.317v.019l-.013.15-.003.031a4.453 4.453 0 0 1-.075.483l-.007.03a4.513 4.513 0 0 1-.102.39l-.01.028c-.025.08-.053.16-.084.24l-.003.008-.05.121c-.476 1.135-1.448 2.22-2.767 3.155-.831.55-1.862 1.08-3.15 1.567-9.022 3.413-19.37 2.5-25.62 0-6.248-2.5-7.682-3.825-7.682-3.825 9.015 9.991 28.07 11.52 37.043 6.056 2.736-1.667 4.095-3.45 4.663-5.125l.018-.01c.013-.036.026-.071.037-.107 1.733-5.214-3.724-10.907-11.51-13.256m-8.023-1.224c1.836.028 3.794.24 5.815.66.53.11 1.052.237 1.564.377 0 0-.002 0 0 0-.106.105-.197.21-.276.313-.002 0 0 0 0 0a24.05 24.05 0 0 0-1.607-.463c-1.874-.465-3.678-.69-5.346-.697a3.259 3.259 0 0 1-.15-.19"/>
        <path fill="#B7B3D9" d="M59.462 34.87a2.405 2.405 0 1 1-4.81 0 2.405 2.405 0 0 1 4.81 0"/>
        <path fill="#806FB0" d="M59.462 36.072a2.405 2.405 0 1 1-4.81 0 2.405 2.405 0 0 1 4.81 0M48.961 26.03c-.256-.466-.446-.806-.812-1.196-.528-.565-1.069-.873-1.537-1.11a9.812 9.812 0 0 0-2.19-.797 7.699 7.699 0 0 1 2.425.604c.49.212.895.451 1.22.674-.021-.1-.29-1.435-.214-2.192.016-.158.041-.317.041-.317.046-.282.113-.54.213-.9.232-.843.805-2.205.98-3.015.087-.406.179-.766.172-1.51-.003-.365-.196-.892-.348-1.58a8.223 8.223 0 0 0-.493-1.51l-.457-.684c-.171.186-.235.334-.584.561-.635.414-2.61-.117-3.727-1.034-1.723.565-3.074 1.58-3.676 2.106 1.75.057.95 1.693.94 1.72.305-.074.882-.161 1.187-.235.23.864.769 3.374-.48 6.232-1.286 2.945-2.987 3.863-3.802 4.326.03.336.162 1.251.945 2.066a3.853 3.853 0 0 0 1.388.911c.756-.466 1.006-.513 1.768-.979.488-.298.798-.444 1.286-.74.058-.024.124-.046.198-.064.25-.06.472-.04.618-.013.183.05.308.136.486.276.453.357.68.535.914.832.488.617.649 1.248.709 1.598.149-.293.494-.866 1.195-1.318 1.066-.688 2.203-.61 2.517-.58a10.587 10.587 0 0 0-.882-2.131"/>
        <path fill="#806FB0" d="M53.028 8.43c-.51-.097-1.133.362-1.152.387-.105.137-.109.231-.187.435-.141.365-.331.59-.59.894-.211.25-.525.551-1.524 1.168-1.01.624-1.115.578-1.533.91a4.376 4.376 0 0 0-.604.585c.104.332.196.67.262 1.012.042.22.088.421.13.608a4.655 4.655 0 0 0 1.265-1.033c.85-1.002 2.6-2.722 2.843-2.9.547-.405.555-.109.894-.492.093-.106.755-.718.541-.78-.446-.131.626-.608-.345-.794M39.7 14.803c.18-.09.339-.18.503-.282 0 0 .233-1.532-.86-1.263-.291.229-.561.38-.785.48-.39.177-.455.125-1.346.415-.798.26-1.494.546-1.846.691-1.142.471-1.398.66-1.863.56-.17-.037-.38-.114-.749-.142-.363-.026-.725-.053-.88.165-.121.174-.054.418.006.632.023.084.192.693.597.77.025.004.463.03.356-.101-.148-.184-.228-.213-.103-.323.184.012.492-.026.837-.071.438-.058.736-.188.884-.213.688-.116 1.383-.048 2.47-.22 1.13-.178 1-.342 1.561-.584.33-.142.801-.306 1.217-.514M41.674 10.93c.776-.312 1.24-.848 1.35-1.378a1.75 1.75 0 0 0 .842-.44c.513-.49.48-1.122.527-1.264.001.167-.066.313.095.568a.699.699 0 0 0 .087.11c.038.125.096.22.182.257.013.005.028.003.043.006.015.162.038.327.076.495.047.12.179.51.023.953a1.35 1.35 0 0 1-.55.68c.767.646 1.458 1.045 1.918 1.1.685.082.952-.594.952-.594-.086-.21-.535-.503-.449-.591.1-.102.272-.051.373-.057.29-.017 2.284-2.686 1.153-4.166-.378-.495-1.49-.732-2.12-.518-.172.058-.297.067-.446.18a.983.983 0 0 0-.142-.048c-.09-.023-.193.019-.296.096a1.437 1.437 0 0 0-.64.113c-.668.295-.717 1.004-1.408 1.956-.506.696-1.048 1.099-1.396 1.357-.499.37-1.421.943-2.827 1.222.245.121 2.02.217 2.653-.037M51.212 32.354c-.046-.612-.13-.85-.12-1.402.006-.417-.062-.863-.2-1.738-.12-.764-.346-1.361-.408-1.559l-.11.013c-1.026.121-2.644 1.016-2.936 2.183.741.437 1.27 1.242 1.362 1.627a5.11 5.11 0 0 0-.022 1.94 5.29 5.29 0 0 0 .531 1.528c.609 1.153.626 1.51.76 2.15.1.484.125.888.13 1.15.133-.001.33.005.561.05.249.048.365.108.509.145.206.052.52.07.979-.108a2.605 2.605 0 0 1-.286-.45c-.215-.43-.243-.804-.254-.94-.128-1.658-.37-2.932-.496-4.59M47.684 38.594c-.068.111-.166.3-.21.549-.032.18-.101.568.12.825.086.099.2.16.54.245.727.181.975.092 1.545.23.418.1.315.156.857.303.755.205 1.099.136 1.302.06.12-.044.37-.136.405-.315.025-.121-.051-.266-.402-.548-.548-.441-.732-.384-1.18-.717-.545-.405-.667-.784-.99-.747-.14.016-.316.11-.436.207-.151.122-.15.199-.282.287-.214.144-.477.116-.543.109-.457-.05-.698-.441-.726-.488M37.823 26.423c-.153.26-.489.97-.99 1.317-.286-.3-.888-.897-1.604-1.296a3.192 3.192 0 0 0-.493-.237c-.488-.18-.723-.121-1.143-.275-.297-.109-1.083-.746-1.882-.676-.6.052-1.214.585-1.09.637.333.14.559.223.975.416 1.93.893 3.856 3.247 4.016 3.35.536.345 1.373.542 1.99.28.26-.11.404-.267.483-.351.346-.369 1.137-1.01 2.139-1.63-.951-.158-2.053-.801-2.4-1.535M32.808 24.49c.008-.211.09-.286.148-.475.104-.332.055-.74-.142-.98a.499.499 0 0 0-.18-.152c-.176-.081-.36-.015-.523.053-.544.226-.618.372-.848.427-.191.047-.494.03-.94-.318-.275.003-.74.05-1.206.343-.49.307-1.035.919-.895 1.254.06.145.23.192.542.278.554.151.776.014 1.174.169.14.054.387-.076.605.161a1.09 1.09 0 0 1 .18-.668c.197-.281.48-.355.674-.405l.059-.014c.133-.03.399-.09.693-.01.105.03.306.084.468.261.163.178.242.41.235.39a.917.917 0 0 1-.044-.313"/>
        <path fill="#B7B3D9" d="M49.673 7.362a1.05 1.05 0 0 0-.265-.111 1.19 1.19 0 0 0-.574-.002c.044-.003.357-.015.554.193.078.082.11.168.126.226a1.167 1.167 0 0 0-1.182.152c.044-.009.819-.157 1.184.22.032.032.147.15.173.331.021.14-.003.366-.167.462a.59.59 0 0 1-.19.064c-.124.02-.171-.012-.217.018-.055.037-.032.118-.014.315.028.304 0 .413-.01.45-.028.097-.063.219-.155.243-.055.014-.095-.016-.375-.092-.045-.013-.079-.021-.11-.007-.064.03-.092.153-.04.216.094.116.436.005.459.067.01.028-.052.069-.061.075-.169.11-.41.002-.446.06-.027.045.112.102.115.202.004.158-.33.348-.653.362-.165.007-.273-.034-.292 0-.04.07.28.278.433.434.394.398-.25.702-.528.778.606.063.889-.398.95-.514l.013-.026c-.055-.12-.253-.27-.373-.384-.072-.068-.116-.125-.083-.155.1-.092.276-.046.378-.051.277-.015 2.072-2.15 1.35-3.526M47.8 12.9c.847-.783 1.331-.664 2.67-1.656.634-.47.957-.714 1.197-1.14.3-.532.296-.944.682-1.235.397-.298.875-.217.981-.2.04.008.08.02.12.032-.004-.108-.1-.206-.42-.27-.51-.103-1.133.382-1.153.409-.104.145-.108.244-.187.46-.14.386-.33.623-.59.945-.212.264-.525.582-1.524 1.234-1.012.66-1.115.61-1.533.962-.238.2-.437.41-.605.618l.045.167c.114-.125.222-.238.318-.327M49.077 13.618c-.461.43-1.02.979-1.639 1.649l.077.364a5.601 5.601 0 0 0 1.495-1.3c.524-.658 1.336-1.56 2.035-2.307-.465.291-1.09.775-1.968 1.594M41.49 10.394c2.302-.94 2.97-3.045 3.072-3.385a1.43 1.43 0 0 0 .42-.114c.277-.124.433-.307.505-.403.007.169.1.295.187.304.1.01.25-.123.263-.343a.58.58 0 0 0 .243.046c.234-.009.361-.17.56-.29.138-.084.357-.175.698-.19-.241-.019-.487 0-.723.072-.187.056-.323.064-.486.174a1.169 1.169 0 0 0-.155-.046c-.098-.022-.21.019-.322.094a1.733 1.733 0 0 0-.698.11c-.728.287-.781.977-1.535 1.904-.551.678-1.142 1.07-1.522 1.323-.53.352-1.504.89-2.976 1.167a5.983 5.983 0 0 0 2.47-.423M45.033 12.757a5.145 5.145 0 0 1-1.336-.733c-1.629.516-2.905 1.443-3.473 1.923.595.018.875.225.993.482l.06-.003c.034-.345.16-.576.261-.719.52-.727 1.644-.847 2.385-.925.463-.05.849-.041 1.11-.025M39.608 13.258c-.302.229-.58.38-.813.48-.403.177-.471.125-1.393.415-.826.26-1.546.546-1.911.691-1.182.471-1.447.66-1.928.56-.177-.037-.394-.114-.776-.141-.375-.027-.75-.054-.91.165-.126.173-.056.417.005.63.024.085.2.695.62.77.021.005.38.025.382-.063-.19-.057-.486-.182-.633-.452-.082-.149-.157-.413-.039-.562.183-.23.668.018 1.351.03.516.008.803-.124 1.448-.33 1.947-.623 2.22-.342 3.342-.845a6.565 6.565 0 0 0 1.852-1.263l.019-.002c-.137-.105-.333-.15-.616-.083M46.166 11.762c.15-.5.083-1.563-.443-2.143.07.22.171.678-.002 1.19a1.79 1.79 0 0 1-.688.896c.607.369 1.014.456 1.133.057"/>
        <path fill="#B7B3D9" d="M46.556 13.678c2.14 3.403 1.16 3.376.449 2.99.304.392.748 1.072.991 2.014.313 1.212.207 2.727.077 3.236-.303 0-1.807-.818-2.191-1.747.398 1.547 1.875 2.633 2.257 2.858-2.42-.306-3.06-.36-3.106-.336a7.385 7.385 0 0 1 2.384.636c.492.227.9.481 1.226.719-.02-.106-.291-1.53-.214-2.335.015-.168.04-.338.04-.338.046-.3.115-.575.215-.959.233-.897.81-2.348.984-3.21.089-.433.18-.816.174-1.609-.003-.388-.197-.95-.35-1.683a9.133 9.133 0 0 0-.495-1.608 55.07 55.07 0 0 1-.178-.282c.023.12.058.27.094.487.124.75.223 1.353-.034 1.609-.397.393-2.177-.373-2.323-.442M41.359 14.429l-.002.002c.193.91.617 3.455-.402 6.352-1.06 3.017-2.464 3.957-3.136 4.432.003.047.543.175 1.786-.683 1.023-.707 1.865-1.966 1.97-2.101-.704.201-1.035-.419-1.01-.45.667-.847 1.701-2.396 1.196-3.77-.018-.05.115.26.279.615.196.426.422.736.588.938-.766-1.84-.735-2.768-1.269-5.335M48.71 29.24c-.101-.777-.293-1.384-.346-1.585l-.093.013c-.249.035-.54.137-.833.289a.824.824 0 0 1 .024.009c.226.234.915.997 1.034 2.016.036.305.12.402-.053.777-.135.29-.227.339-.333.617-.158.415.13.671.233.848.71 1.206.863 3.681.649 4.796-.024.125-.09.43.038.746.175.433.622.673.813.71a2.753 2.753 0 0 1-.223-.423 2.925 2.925 0 0 1-.216-.956c-.109-1.685-.314-2.98-.421-4.666-.04-.621-.11-.863-.103-1.424.006-.424-.052-.878-.17-1.767"/>
        <path fill="#B7B3D9" d="M48.349 23.73a4.44 4.44 0 0 0-.911-.884 4.907 4.907 0 0 1 .552.95 4.6 4.6 0 0 1 .42 1.637 4.5 4.5 0 0 1-.446 2.222 3.07 3.07 0 0 1 1.879-.386 12.604 12.604 0 0 0-.778-2.267c-.226-.496-.394-.857-.716-1.273M29.091 23.712a2.882 2.882 0 0 0-.168.185l-.049.06c-.04.051-.08.103-.12.158l-.05.07c-.05.07-.097.144-.142.22l-.013.02c-.047.079-.09.16-.13.241-.015.028-.027.056-.04.083a2.845 2.845 0 0 0-.17.466c-.002.011-.007.024-.01.035.434-.786.86-1.053 1.084-1.154.755-.343 1.636.06 1.692.086.17.081.257.148.415.138.353-.02.469-.39.97-.623.215-.1.385-.175.514-.024.048.056.101.174.135.46-.001-.37-.06-.735-.19-.985a.658.658 0 0 0-.18-.242c-.178-.13-.365-.024-.528.084-.55.362-.624.594-.856.682-.12.047-.285.055-.501-.082a1.932 1.932 0 0 1-.448-.425c-.276.004-.745.08-1.215.547M54.292 40.2c-.72-.55-.96-.478-1.547-.893-.488-.345-.717-.67-.948-.83a1.563 1.563 0 0 0-.309.023c-.123.022-.383.068-.434.222-.043.129.084.267.118.304.175.189.363.162.633.273.398.165.65.498.931.869.101.132.162.231.309.356a1.39 1.39 0 0 0 1.334.297c.112-.031.2-.057.248-.128.012-.018.044-.072.01-.194a3.13 3.13 0 0 0-.345-.3"/>
        <path fill="#806FB0" d="M37.823 26.423c-.153.26-.489.97-.99 1.317-.286-.3-.888-.897-1.604-1.296a3.192 3.192 0 0 0-.493-.237c-.488-.18-.723-.121-1.143-.275-.297-.109-1.083-.746-1.882-.676-.6.052-1.214.585-1.09.637.333.14.559.223.975.416 1.93.893 3.856 3.247 4.016 3.35.536.345 1.373.542 1.99.28.26-.11.404-.267.483-.351.346-.369 1.137-1.01 2.139-1.63-.951-.158-2.053-.801-2.4-1.535"/>
        <path fill="#B7B3D9" d="M35.245 26.237c-.15-.098-.285-.187-.489-.276-.485-.21-.717-.141-1.134-.321-.127-.055-.345-.222-.613-.39.082.1.209.266.386.44.949.931 1.724.965 2.37 1.627.328.338.623.807.861 1.54.11-.496.67-1.325.88-1.643.273-.411.303-.842.313-1.001-.152.304-.486 1.133-.983 1.538-.283-.352-.88-1.047-1.59-1.514M42.87 27.511c.101-.06.205-.126.32-.2l.008-.004a1.42 1.42 0 0 1 .168-.057c.015-.005.027-.011.043-.015l.047-.009c.012-.002.022-.006.035-.009v.003c.232-.044.437-.027.576.001.04-.14.084-.278.124-.42.146-.504.285-1.003.42-1.5.235-.679.422-1.253.422-1.253-.552 1.576-2.173 3.358-2.405 3.607.079-.046.16-.094.242-.144"/>
        <g>
            <path fill="#806FB0" d="M19.566 81.845v1.014c-.707-.207-1.221-.253-1.59-.253-.853 0-1.314.499-1.314 1.713 0 1.198.377 1.62 1.322 1.62.399 0 .852-.038 1.712-.323v1.03a4.9 4.9 0 0 1-1.759.338c-1.682 0-2.557-.576-2.557-2.612 0-2.05 1.006-2.81 2.619-2.81.453 0 .96.045 1.567.283zm4.316 5.085v-2.228h-2.227v2.228h-1.268v-5.307h1.268v2.043h2.227v-2.043h1.267v5.307h-1.267zm5.407-1.007h-1.95c-.216.569-.308.807-.377 1.007H25.61l2.058-5.3h1.345l2.02 5.3H29.68l-.392-1.007zm-1.006-2.703l-.56 1.69h1.174l-.568-1.69h-.046zm8.041 3.71l-.107-3.587-1.214 2.289h-.952l-1.237-2.22-.1 3.518h-1.26l.346-5.307h1.329l1.398 2.672 1.337-2.672h1.359l.338 5.307h-1.237zm2.043 0v-5.307h2.335c1.221 0 2.058.752 2.058 1.843 0 .768-.445 1.866-2.05 1.866h-1.075v1.598h-1.268zm2.32-4.263h-1.052v1.62h1.098c.599 0 .73-.46.73-.829 0-.46-.285-.79-.776-.79zm2.726 4.263v-5.307h1.275v5.307h-1.275zm7.266-2.596c0 1.351-.5 2.65-2.611 2.65-1.99 0-2.573-.93-2.573-2.65 0-1.958.967-2.773 2.58-2.773 1.797 0 2.604.93 2.604 2.773zm-3.902 0c0 .998.254 1.613 1.267 1.613 1.03 0 1.337-.584 1.337-1.613 0-1.014-.253-1.705-1.337-1.705-1.029 0-1.267.752-1.267 1.705zm9.5-2.704v5.3h-1.082L52.7 83.665v3.265h-1.252v-5.308h1.075l2.504 3.272V81.63h1.252zm.692 4.01c.776.23 1.513.291 2.005.291.683 0 .899-.215.899-.522 0-.93-2.88-.538-2.88-2.304 0-1.175.998-1.536 2.112-1.536.476 0 1.167.03 1.812.322v1.006a6.154 6.154 0 0 0-1.797-.268c-.56 0-.837.138-.837.407 0 .292.322.407 1.082.653.9.292 1.798.591 1.798 1.736 0 1.16-.922 1.566-2.227 1.566-.523 0-1.222-.038-1.967-.338V85.64zm8.38 1.29v-2.228h-2.227v2.228h-1.268v-5.307h1.268v2.043h2.227v-2.043h1.267v5.307H65.35zm2.15 0v-5.307h1.275v5.307H67.5zm2.158 0v-5.307h2.335c1.221 0 2.058.752 2.058 1.843 0 .768-.445 1.866-2.05 1.866h-1.075v1.598h-1.268zm2.32-4.263h-1.052v1.62h1.098c.599 0 .73-.46.73-.829 0-.46-.284-.79-.776-.79zM65.026 72.948l-1.964.178a.311.311 0 0 1-.339-.31v-.878a.31.31 0 0 1 .247-.304l2.59-.547h1.186c.172 0 .31.14.31.31v8.371c0 .172-.138.312-.31.312h-1.409a.311.311 0 0 1-.31-.312v-6.82zm3.002-.493V71.41c0-.172.139-.311.31-.311h5.781c.172 0 .311.14.311.311v.938l-3.805 7.56a.31.31 0 0 1-.277.17H68.95a.311.311 0 0 1-.278-.45l3.468-6.863H68.34a.31.31 0 0 1-.311-.311zm-8.706 2.827h3.048c.172 0 .31.139.31.31v1.057a.31.31 0 0 1-.31.311h-3.048a.31.31 0 0 1-.311-.31v-1.057c0-.172.14-.311.31-.311zM22.588 71.09c.172 0 .31.139.31.31v5.195c0 2.537-1.69 3.578-3.942 3.578-2.72 0-3.956-1.34-3.956-3.578v-5.194c0-.172.14-.311.31-.311h1.526c.172 0 .311.139.311.31v5.22c0 1.094.625 1.783 1.809 1.783 1.132 0 1.783-.637 1.783-1.782v-5.22c0-.172.14-.311.31-.311h1.539zm9.645.31v8.358a.31.31 0 0 1-.311.311h-1.37a.311.311 0 0 1-.247-.122l-4.137-5.409v5.22a.31.31 0 0 1-.31.311h-1.5a.31.31 0 0 1-.311-.31v-8.371c0-.172.14-.311.31-.311h1.359c.096 0 .187.045.246.122l4.15 5.421v-5.22c0-.171.139-.31.31-.31h1.5c.171 0 .31.139.31.31zm4.792-.31c3.526 0 4.58 2.082 4.58 4.502 0 2.043-.884 4.477-4.437 4.477h-3.411a.31.31 0 0 1-.311-.31v-8.358c0-.172.139-.311.31-.311h3.269zm-1.432 1.757V78.3h1.575c1.275 0 2.225-.664 2.225-2.667 0-2.239-1.067-2.785-2.316-2.785h-1.484zm13.644 7.222H42.78a.311.311 0 0 1-.311-.31v-8.358c0-.172.139-.311.311-.311h6.327c.172 0 .311.139.311.31v1.149a.31.31 0 0 1-.31.31h-4.479v1.64h4.088c.172 0 .311.14.311.311v1.135a.31.31 0 0 1-.31.311h-4.089v2.056h4.608c.172 0 .311.14.311.311v1.135a.31.31 0 0 1-.31.311zm9.06-.467a.311.311 0 0 1-.268.467h-1.694a.31.31 0 0 1-.275-.166l-1.526-2.892h-1.039v-1.757h1.234c1.093 0 1.327-.638 1.327-1.25 0-.74-.455-1.157-1.418-1.157h-1.835v2.407h.006v1.757h-.006v2.747a.31.31 0 0 1-.311.311h-1.526a.31.31 0 0 1-.31-.31v-8.371c0-.172.139-.311.31-.311h3.763c2.264 0 3.448 1.08 3.448 2.941 0 .937-.338 2.095-1.575 2.655l1.696 2.93zM30.703 66.117l-.863 3.412h-1.326l-1.607-5.085h1.327l.899 3.486h.044l.906-3.486h1.29l.9 3.486h.043l.907-3.486h1.289l-1.57 5.085h-1.326l-.884-3.412h-.03zm8.98.921c0 1.297-.478 2.543-2.504 2.543-1.91 0-2.47-.893-2.47-2.543 0-1.88.93-2.66 2.477-2.66 1.724 0 2.498.892 2.498 2.66zm-3.743 0c0 .958.244 1.548 1.217 1.548.987 0 1.281-.56 1.281-1.548 0-.973-.243-1.636-1.281-1.636-.988 0-1.217.722-1.217 1.636zm8.93 2.49l-.103-3.44-1.164 2.196h-.914l-1.186-2.13-.096 3.375h-1.208l.331-5.092h1.275L43.146 67l1.283-2.564h1.304l.324 5.092H44.87zm5.968 0h-4.009v-5.084h3.935v1.002h-2.711v.929h2.49v.995h-2.49v1.164h2.785v.995zm5.26-5.084v5.085H55.06l-2.395-3.132v3.132h-1.201v-5.092h1.031l2.403 3.14v-3.133h1.2zm1.267-.317c.442 0 .656.288.656.686 0 .147-.044.405-.118.567l-.36.855c-.067.162-.148.206-.34.206h-.346l.236-1.127a.59.59 0 0 1-.369-.568c0-.339.295-.619.641-.619zm1.135 4.164c.744.221 1.451.28 1.923.28.656 0 .862-.207.862-.502 0-.89-2.763-.515-2.763-2.21 0-1.127.958-1.473 2.026-1.473.457 0 1.12.029 1.739.309v.965a5.902 5.902 0 0 0-1.724-.257c-.538 0-.803.132-.803.39 0 .28.31.39 1.039.626.862.28 1.724.568 1.724 1.666 0 1.112-.885 1.503-2.137 1.503-.501 0-1.172-.037-1.886-.324v-.973z"/>
            <path fill="#72539E" d="M34.483 57.794l-.414-.405a14.836 14.836 0 0 1 10.646-4.484c4.172 0 7.944 1.718 10.646 4.484l-.414.405a14.258 14.258 0 0 0-10.232-4.31c-4.01 0-7.635 1.65-10.232 4.31zm4.068 4.591l-.435-.381a8.751 8.751 0 0 1 6.599-2.992c2.63 0 4.99 1.158 6.599 2.992l-.435.381a8.176 8.176 0 0 0-6.164-2.794 8.176 8.176 0 0 0-6.164 2.794zm14.356-5.265c.172.133.16.267.117.4l-1.074 3.726-.608-.558.207-.718-.716-.55.62-.401.304.233.368-1.278-2.34 1.52-.687-.385L52.346 57c.118-.076.244-.122.416.01l.145.11zm-15.013 2.674c-.265-.03-.432-.14-.684-.452l-1.291-1.588-.573.465 1.412 1.738c.296.363.63.556 1.024.593.444.04.84-.092 1.23-.408.39-.318.601-.678.652-1.121.044-.393-.077-.76-.372-1.124L37.88 56.16l-.573.466 1.292 1.589c.253.31.327.496.302.761-.019.218-.152.437-.35.599-.199.161-.44.246-.657.22zm5.568-4.704l-.139-.683-2.283.465c-.158.032-.252.154-.216.327l.477 2.347c.163.8.744.982 1.387.851l1.39-.282-.14-.683-1.348.275c-.348.07-.502.003-.581-.385l-.072-.353 1.676-.34-.137-.673-1.676.342-.17-.836 1.832-.372zm3.536 1.764l1.655.434.174-.663-1.655-.434.091-.348c.1-.383.259-.442.603-.352l1.331.35.177-.674-1.372-.36c-.635-.167-1.225-.017-1.432.772l-.608 2.317c-.045.17.042.298.198.34l.446.116.392-1.498z"/>
        </g>
    </g>
</svg>
