<?xml version="1.0" encoding="utf-8"?>
<!-- Generator: Adobe Illustrator 23.0.3, SVG Export Plug-In . SVG Version: 6.00 Build 0)  -->
<svg version="1.1" id="UWE_x5F_2021_x5F_P_x5F_FC_x5F_on_x5F_Light_1_"
	 xmlns="http://www.w3.org/2000/svg" xmlns:xlink="http://www.w3.org/1999/xlink" x="0px" y="0px" viewBox="0 0 467.72 467.72"
	 style="enable-background:new 0 0 467.72 467.72;" xml:space="preserve">
<style type="text/css">
	.st0{fill:#58595B;}
	.st1{fill:url(#SVGID_1_);}
	.st2{fill:url(#SVGID_2_);}
	.st3{fill:url(#SVGID_3_);}
	.st4{fill:url(#SVGID_4_);}
	.st5{fill:url(#SVGID_5_);}
	.st6{fill:url(#SVGID_6_);}
	.st7{fill:url(#SVGID_7_);}
	.st8{fill:url(#SVGID_8_);}
	.st9{opacity:0.34;clip-path:url(#SVGID_11_);fill:#FFFFFF;}
	.st10{fill:url(#SVGID_12_);}
	.st11{fill:url(#SVGID_13_);}
	.st12{fill:url(#SVGID_14_);}
	.st13{fill:url(#SVGID_15_);}
	.st14{fill:url(#SVGID_16_);}
</style>
<g id="UWE_x5F_2021_x5F_P_x5F_FC_x5F_on_x5F_Light">
	<g>
		<path class="st0" d="M134.37,387.79l-2.19,9.58l-3.17,13.85c-0.28,1.22-0.67,2-1.17,2.34c-0.5,0.35-1.28,0.52-2.32,0.52h-3.02
			c-0.49,0-0.92-0.02-1.3-0.06c-0.38-0.03-0.71-0.14-0.99-0.31c-0.28-0.17-0.52-0.44-0.73-0.78c-0.21-0.35-0.38-0.85-0.52-1.51
			l-7.39-32.95c-0.11-0.49-0.09-0.78,0.05-0.89c0.14-0.11,0.4-0.16,0.78-0.16h6.35c0.48,0,0.86,0.06,1.12,0.18
			c0.26,0.12,0.44,0.44,0.55,0.96l2.6,15.1l1.56,9.32h0.36l1.98-9.42l2.81-13.12c0.28-1.11,0.64-1.89,1.09-2.32
			c0.45-0.44,1.23-0.65,2.34-0.65h3.02c1.04,0,1.75,0.22,2.11,0.65c0.36,0.43,0.67,1.14,0.91,2.11l2.91,13.69l1.87,8.85h0.31
			l1.46-8.85l2.66-15.25c0.07-0.52,0.2-0.85,0.39-0.99c0.19-0.14,0.51-0.21,0.96-0.21h6.72c0.31,0,0.53,0.06,0.67,0.18
			c0.14,0.12,0.14,0.41,0,0.86l-7.39,32.79c-0.17,0.66-0.36,1.17-0.55,1.54s-0.42,0.64-0.7,0.83c-0.28,0.19-0.61,0.31-0.99,0.34
			c-0.38,0.03-0.82,0.06-1.3,0.06h-2.86c-0.52,0-0.97-0.03-1.35-0.08c-0.39-0.05-0.71-0.18-0.99-0.39c-0.28-0.21-0.52-0.5-0.73-0.89
			c-0.21-0.38-0.4-0.89-0.57-1.51l-3.02-13.85l-2.03-9.58H134.37z"/>
		<path class="st0" d="M192,395.65c0,2.98-0.32,5.64-0.96,7.96c-0.64,2.33-1.64,4.3-2.99,5.94c-1.36,1.63-3.05,2.87-5.1,3.72
			c-2.05,0.85-4.47,1.28-7.29,1.28c-5.38,0-9.38-1.63-12-4.89c-2.62-3.26-3.93-7.88-3.93-13.85c0-2.91,0.37-5.54,1.12-7.88
			c0.75-2.34,1.81-4.32,3.2-5.94c1.39-1.61,3.07-2.86,5.05-3.72c1.98-0.86,4.22-1.3,6.71-1.3c2.71,0,5.08,0.44,7.1,1.3
			c2.03,0.87,3.72,2.11,5.05,3.72c1.33,1.61,2.34,3.58,3.02,5.88C191.67,390.18,192,392.77,192,395.65z M183.73,395.81
			c0-1.56-0.11-3.05-0.34-4.47c-0.23-1.42-0.64-2.67-1.22-3.75c-0.59-1.08-1.39-1.94-2.39-2.58c-1.01-0.64-2.31-0.97-3.91-0.97
			c-1.32,0-2.47,0.31-3.46,0.91c-0.99,0.61-1.81,1.43-2.47,2.47c-0.66,1.04-1.14,2.26-1.46,3.64c-0.31,1.39-0.47,2.86-0.47,4.43
			c0,1.84,0.13,3.49,0.39,4.94c0.26,1.46,0.69,2.71,1.3,3.75s1.41,1.84,2.42,2.39c1.01,0.55,2.27,0.83,3.8,0.83
			c1.5,0,2.74-0.32,3.75-0.97c1.01-0.64,1.8-1.49,2.39-2.55c0.59-1.06,1.02-2.29,1.28-3.69C183.6,398.8,183.73,397.33,183.73,395.81
			z"/>
		<path class="st0" d="M228.75,393h-0.31l-2.14,4.84l-4.32,9.58c-0.38,0.9-0.77,1.51-1.17,1.82c-0.4,0.31-1,0.47-1.8,0.47h-2.86
			c-0.87,0-1.47-0.15-1.8-0.47c-0.33-0.31-0.7-0.92-1.12-1.82l-3.23-6.77l-3.23-7.03h-0.31v19.31c0,0.49-0.08,0.78-0.26,0.89
			c-0.17,0.11-0.49,0.16-0.94,0.16h-5.31c-0.38,0-0.68-0.05-0.89-0.16c-0.21-0.1-0.31-0.4-0.31-0.89v-31.81
			c0-1.32,0.25-2.25,0.75-2.81c0.5-0.55,1.36-0.83,2.58-0.83h3.02c0.97,0,1.69,0.18,2.16,0.55c0.47,0.36,0.92,1,1.33,1.9l5.68,12.7
			l3.23,7.39h0.21l3.54-8.12l5.32-11.87c0.42-0.94,0.88-1.59,1.38-1.98c0.5-0.38,1.31-0.57,2.43-0.57h2.55c1.11,0,1.94,0.23,2.5,0.7
			c0.56,0.47,0.83,1.36,0.83,2.68v32.06c0,0.49-0.08,0.78-0.26,0.89c-0.17,0.11-0.49,0.16-0.94,0.16h-5.19
			c-0.39,0-0.67-0.05-0.87-0.16c-0.19-0.1-0.29-0.4-0.29-0.89V393z"/>
		<path class="st0" d="M269.93,413.69c-0.14,0.19-0.42,0.29-0.83,0.29h-15.41c-1.94,0-3.53-0.28-4.76-0.83
			c-1.23-0.55-2.22-1.28-2.94-2.19c-0.73-0.9-1.23-1.92-1.51-3.07c-0.28-1.14-0.42-2.3-0.42-3.49v-17.28c0-1.25,0.17-2.44,0.52-3.59
			c0.35-1.15,0.89-2.17,1.64-3.07c0.75-0.9,1.72-1.62,2.94-2.16c1.21-0.54,2.71-0.81,4.48-0.81h14.94c0.42,0,0.69,0.09,0.81,0.26
			c0.12,0.17,0.18,0.5,0.18,0.99v4.43c0,0.45-0.07,0.75-0.21,0.91c-0.14,0.15-0.4,0.23-0.78,0.23h-13.22
			c-1.35,0-2.26,0.31-2.71,0.94c-0.45,0.62-0.68,1.39-0.68,2.29v4.01h14.94c0.42,0,0.69,0.08,0.8,0.26c0.12,0.17,0.19,0.5,0.19,0.99
			v4.06c0,0.42-0.06,0.72-0.19,0.91c-0.12,0.19-0.39,0.29-0.8,0.29h-14.94v5.94c0,1.22,0.29,2.04,0.86,2.47
			c0.57,0.44,1.41,0.65,2.52,0.65h13.74c0.45,0,0.74,0.08,0.86,0.23c0.12,0.16,0.18,0.5,0.18,1.02v4.42
			C270.13,413.2,270.06,413.5,269.93,413.69z"/>
		<path class="st0" d="M283.83,391.33v21.55c0,0.45-0.08,0.75-0.23,0.89s-0.48,0.21-0.97,0.21h-5.46c-0.42,0-0.72-0.08-0.91-0.23
			c-0.19-0.16-0.28-0.44-0.28-0.86v-31.76c0-1.35,0.24-2.3,0.73-2.83c0.48-0.54,1.37-0.81,2.65-0.81h2.19
			c0.52,0,0.97,0.03,1.33,0.08c0.36,0.05,0.68,0.17,0.96,0.33c0.28,0.18,0.54,0.42,0.78,0.73c0.25,0.31,0.52,0.71,0.83,1.2
			l8.85,13.48l4.48,7.03h0.26v-21.76c0-0.42,0.08-0.7,0.23-0.86c0.16-0.15,0.48-0.23,0.97-0.23h5.46c0.8,0,1.2,0.36,1.2,1.09v31.81
			c0,1.11-0.23,1.99-0.68,2.63c-0.45,0.64-1.36,0.96-2.71,0.96h-2.19c-0.52,0-0.96-0.03-1.33-0.08c-0.37-0.06-0.69-0.17-0.97-0.34
			c-0.28-0.17-0.54-0.41-0.78-0.7c-0.25-0.3-0.52-0.69-0.83-1.17l-8.33-12.59l-4.99-7.76H283.83z"/>
		<path class="st0" d="M320.42,390.55c-0.14,0.42-0.28,0.7-0.42,0.86s-0.4,0.23-0.78,0.23h-2.76c-0.86,0-1.28-0.33-1.25-0.99
			l0.78-12.54c0.03-0.35,0.12-0.64,0.26-0.86s0.45-0.34,0.94-0.34h5.94c0.59,0,0.94,0.13,1.04,0.39c0.11,0.26,0.11,0.53,0,0.81
			L320.42,390.55z"/>
		<path class="st0" d="M331.66,387.48c0-1.46,0.25-2.83,0.75-4.11c0.5-1.28,1.26-2.41,2.27-3.36c1-0.95,2.29-1.71,3.85-2.26
			c1.56-0.55,3.4-0.83,5.52-0.83c0.97,0,1.99,0.05,3.05,0.16c1.06,0.1,2.1,0.26,3.13,0.47c1.02,0.21,2,0.46,2.94,0.76
			c0.94,0.29,1.79,0.63,2.55,1.01c0.42,0.21,0.65,0.41,0.7,0.6c0.05,0.19-0.01,0.55-0.18,1.06l-1.36,3.91
			c-0.17,0.49-0.35,0.76-0.52,0.83c-0.17,0.07-0.47,0.05-0.88-0.06c-1.64-0.48-3.25-0.89-4.87-1.19c-1.61-0.31-3.13-0.47-4.56-0.47
			c-1.53,0-2.6,0.28-3.22,0.83c-0.63,0.55-0.94,1.23-0.94,2.03c0,0.45,0.11,0.87,0.31,1.25s0.55,0.75,1.02,1.12
			c0.47,0.36,1.09,0.74,1.87,1.12c0.78,0.38,1.75,0.8,2.89,1.25c1.77,0.69,3.4,1.4,4.89,2.11c1.49,0.71,2.77,1.52,3.83,2.42
			c1.06,0.9,1.89,1.96,2.5,3.18c0.61,1.22,0.91,2.67,0.91,4.37c0,1.84-0.33,3.44-0.99,4.79c-0.66,1.36-1.58,2.48-2.76,3.38
			c-1.18,0.9-2.61,1.58-4.29,2.03c-1.69,0.45-3.53,0.68-5.55,0.68c-1.11,0-2.27-0.06-3.49-0.18c-1.22-0.12-2.42-0.31-3.62-0.57
			c-1.2-0.26-2.37-0.6-3.52-1.02c-1.14-0.42-2.2-0.92-3.17-1.51c-0.28-0.17-0.44-0.36-0.5-0.57c-0.05-0.21,0.01-0.54,0.18-0.99
			l1.77-4.16c0.17-0.42,0.36-0.66,0.57-0.73c0.21-0.07,0.5-0.02,0.89,0.16c0.69,0.28,1.46,0.56,2.29,0.86
			c0.83,0.3,1.69,0.55,2.58,0.78c0.89,0.23,1.79,0.42,2.71,0.57c0.92,0.16,1.83,0.24,2.73,0.24c1.08,0,1.98-0.11,2.71-0.31
			s1.32-0.48,1.77-0.8c0.45-0.33,0.76-0.71,0.94-1.15c0.17-0.43,0.26-0.89,0.26-1.38c0-0.52-0.09-0.99-0.28-1.41
			c-0.19-0.42-0.5-0.83-0.94-1.22c-0.43-0.4-1.02-0.78-1.77-1.14c-0.75-0.36-1.68-0.76-2.79-1.17c-1.84-0.69-3.5-1.41-4.99-2.14
			c-1.5-0.73-2.78-1.53-3.86-2.42c-1.08-0.89-1.9-1.87-2.47-2.97C331.95,390.21,331.66,388.93,331.66,387.48z"/>
	</g>
	<path id="UEFA_3_" class="st0" d="M247.84,322.48l13,3.41l1.37-5.21l-13-3.4l0.72-2.73c0.79-3.02,2.03-3.47,4.74-2.76l10.44,2.74
		l1.39-5.3l-10.77-2.82c-4.99-1.3-9.61-0.13-11.24,6.06l-4.77,18.2c-0.36,1.33,0.33,2.34,1.55,2.66l3.52,0.92L247.84,322.48z
		 M220.08,308.63l-1.09-5.36l-17.93,3.65c-1.23,0.25-1.97,1.22-1.69,2.58l3.75,18.42c1.27,6.28,5.83,7.71,10.89,6.68l10.9-2.22
		l-1.09-5.36l-10.58,2.15c-2.74,0.56-3.95,0.03-4.57-3.03l-0.57-2.76l13.17-2.68l-1.07-5.28l-13.17,2.68l-1.33-6.56L220.08,308.63z
		 M176.37,345.57c-2.09-0.24-3.39-1.11-5.37-3.55l-10.15-12.47l-4.49,3.65l11.09,13.65c2.32,2.85,4.96,4.36,8.04,4.66
		c3.48,0.32,6.59-0.72,9.66-3.21c3.06-2.5,4.72-5.32,5.12-8.79c0.35-3.09-0.6-5.97-2.92-8.83l-11.08-13.63l-4.51,3.64l10.14,12.48
		c2,2.45,2.58,3.9,2.38,5.98c-0.15,1.72-1.19,3.43-2.76,4.69C179.96,345.11,178.06,345.77,176.37,345.57z M294.23,324.58
		c1.35,1.04,1.25,2.1,0.92,3.13l-8.43,29.26l-4.78-4.39l1.63-5.63l-5.62-4.32l4.86-3.15l2.38,1.83l2.91-10.03l-18.38,11.93
		l-5.39-3.02l25.49-16.56c0.93-0.58,1.92-0.96,3.27,0.08L294.23,324.58z M181.53,365.91l-3.42-3c12.63-14.4,31.16-23.49,51.82-23.49
		c20.65,0,39.18,9.09,51.8,23.49l-3.41,3c-11.8-13.45-29.1-21.94-48.39-21.94C210.63,343.97,193.31,352.47,181.53,365.91z
		 M149.58,329.86l-3.24-3.17c21.21-21.72,50.82-35.2,83.59-35.2c32.76,0,62.37,13.48,83.58,35.2l-3.24,3.17
		c-20.39-20.87-48.85-33.84-80.33-33.84C198.43,296.02,169.97,308.99,149.58,329.86z"/>
	<g>
		<g>
			<path class="st0" d="M188.12,463.54c-0.14,0.2-0.43,0.3-0.86,0.3h-15.92c-2.01,0-3.65-0.28-4.92-0.86
				c-1.27-0.57-2.29-1.33-3.04-2.26c-0.75-0.93-1.27-1.99-1.56-3.17c-0.29-1.18-0.43-2.38-0.43-3.6v-17.85
				c0-1.29,0.18-2.52,0.53-3.71c0.36-1.19,0.92-2.24,1.7-3.17c0.77-0.93,1.78-1.68,3.04-2.23c1.25-0.56,2.8-0.84,4.63-0.84h15.43
				c0.43,0,0.71,0.09,0.84,0.27c0.12,0.18,0.19,0.52,0.19,1.02V432c0,0.46-0.07,0.78-0.21,0.94c-0.14,0.16-0.42,0.24-0.81,0.24
				h-13.66c-1.4,0-2.33,0.32-2.8,0.97c-0.46,0.64-0.7,1.44-0.7,2.37v4.14H185c0.43,0,0.71,0.09,0.83,0.27
				c0.13,0.18,0.19,0.52,0.19,1.02v4.19c0,0.43-0.07,0.74-0.19,0.94c-0.12,0.2-0.4,0.3-0.83,0.3h-15.43v6.13
				c0,1.26,0.3,2.1,0.89,2.55c0.59,0.45,1.46,0.67,2.61,0.67h14.2c0.46,0,0.76,0.08,0.89,0.24c0.12,0.16,0.19,0.51,0.19,1.05v4.57
				C188.34,463.03,188.26,463.34,188.12,463.54z"/>
			<path class="st0" d="M224.84,458.62c0,1.26-0.28,2.33-0.84,3.23c-0.56,0.9-1.58,1.54-3.09,1.94c-0.72,0.18-1.51,0.31-2.37,0.4
				c-0.86,0.09-1.72,0.15-2.58,0.19c-0.86,0.04-1.67,0.06-2.42,0.08c-0.75,0.02-1.36,0.03-1.82,0.03c-3.09,0-5.73-0.26-7.93-0.78
				c-2.21-0.52-4-1.4-5.4-2.66c-1.4-1.26-2.42-2.92-3.06-5c-0.65-2.08-0.97-4.7-0.97-7.85l-0.06-20.86c0-0.43,0.11-0.72,0.32-0.88
				c0.21-0.16,0.52-0.25,0.91-0.25h5.75c0.54,0,0.89,0.07,1.05,0.22c0.16,0.14,0.25,0.45,0.25,0.91v21.35
				c0,1.47,0.12,2.75,0.38,3.84c0.25,1.09,0.7,2,1.34,2.72c0.64,0.72,1.51,1.25,2.61,1.58c1.09,0.34,2.5,0.51,4.22,0.51
				c0.25,0,0.6-0.01,1.02-0.03c0.43-0.02,0.91-0.04,1.43-0.05c0.52-0.02,1.05-0.06,1.61-0.11s1.07-0.14,1.53-0.24v-29.58
				c0-0.43,0.1-0.72,0.3-0.88c0.2-0.16,0.51-0.25,0.94-0.25h5.7c0.53,0,0.87,0.07,0.99,0.22c0.12,0.14,0.19,0.45,0.19,0.91V458.62z"
				/>
			<path class="st0" d="M256.63,446.2c1.22,0.53,2.08,1.3,2.58,2.28c0.5,0.98,0.91,2.1,1.24,3.36l2.74,10.75
				c0.07,0.22,0.06,0.48-0.03,0.78c-0.09,0.3-0.35,0.46-0.78,0.46h-5.65c-0.39,0-0.81-0.04-1.23-0.14c-0.43-0.09-0.74-0.4-0.91-0.94
				l-2.37-9.52c-0.47-1.75-1.16-2.98-2.07-3.65c-0.91-0.68-2.18-1.02-3.79-1.02h-5.22v14.14c0,0.5-0.07,0.81-0.21,0.94
				c-0.14,0.13-0.49,0.19-1.02,0.19h-5.75c-0.43,0-0.74-0.08-0.94-0.24c-0.2-0.16-0.29-0.46-0.29-0.89v-33.28
				c0-1.08,0.21-1.89,0.64-2.45s1.29-0.84,2.58-0.84h13.17c3.91,0,6.93,0.99,9.06,2.96c2.13,1.97,3.2,4.63,3.2,7.96
				c0,1.82-0.43,3.55-1.29,5.16c-0.86,1.61-2.1,2.85-3.71,3.71L256.63,446.2z M253.18,437.59c0-0.46-0.07-0.95-0.21-1.45
				c-0.14-0.5-0.39-0.96-0.73-1.37c-0.34-0.41-0.81-0.75-1.42-1.02c-0.61-0.27-1.38-0.4-2.31-0.4h-7.31v8.6h7.15
				c1.58,0,2.78-0.4,3.61-1.21C252.77,439.93,253.18,438.88,253.18,437.59z"/>
			<path class="st0" d="M301.15,444.91c0,3.08-0.33,5.82-0.99,8.23s-1.69,4.45-3.09,6.13c-1.4,1.68-3.16,2.96-5.27,3.84
				c-2.11,0.88-4.62,1.32-7.53,1.32c-5.56,0-9.69-1.68-12.39-5.05c-2.71-3.37-4.06-8.14-4.06-14.31c0-3.01,0.39-5.72,1.16-8.14
				c0.77-2.42,1.87-4.46,3.31-6.13c1.43-1.67,3.17-2.95,5.22-3.85c2.04-0.89,4.35-1.34,6.94-1.34c2.8,0,5.24,0.45,7.34,1.34
				c2.1,0.9,3.84,2.18,5.22,3.85s2.42,3.69,3.12,6.08C300.8,439.25,301.15,441.93,301.15,444.91z M292.6,445.07
				c0-1.61-0.12-3.15-0.35-4.62c-0.24-1.47-0.66-2.76-1.26-3.87s-1.44-2-2.47-2.66c-1.04-0.67-2.38-1-4.03-1
				c-1.36,0-2.56,0.32-3.58,0.94c-1.02,0.63-1.87,1.48-2.56,2.56c-0.68,1.08-1.18,2.33-1.51,3.76c-0.32,1.44-0.48,2.96-0.48,4.57
				c0,1.9,0.13,3.6,0.4,5.11c0.27,1.51,0.72,2.8,1.34,3.87s1.46,1.9,2.5,2.47c1.04,0.57,2.35,0.86,3.93,0.86
				c1.54,0,2.83-0.33,3.87-1c1.04-0.66,1.86-1.54,2.47-2.63c0.61-1.09,1.05-2.36,1.32-3.82C292.46,448.16,292.6,446.64,292.6,445.07
				z"/>
		</g>
	</g>
	<g>
		<linearGradient id="SVGID_1_" gradientUnits="userSpaceOnUse" x1="312.6909" y1="11.6259" x2="269.6115" y2="41.5177">
			<stop  offset="0" style="stop-color:#FFF599"/>
			<stop  offset="0.0387" style="stop-color:#FFF594"/>
			<stop  offset="0.0871" style="stop-color:#FFF488"/>
			<stop  offset="0.1408" style="stop-color:#FFF371"/>
			<stop  offset="0.1982" style="stop-color:#FFF149"/>
			<stop  offset="0.2582" style="stop-color:#FFEF00"/>
			<stop  offset="0.6209" style="stop-color:#F3901D"/>
			<stop  offset="0.7341" style="stop-color:#DD6B1F"/>
			<stop  offset="0.9141" style="stop-color:#C0321D"/>
			<stop  offset="1" style="stop-color:#B5121B"/>
		</linearGradient>
		<path class="st1" d="M289.41,4.18v12.87l-16.19,45.56l-15.56,2.77l-8.33-1.11c0,0,15-6.11,21.12-7.78L289.41,4.18z"/>
		
			<radialGradient id="SVGID_2_" cx="60.2033" cy="233.7176" r="35.2114" gradientTransform="matrix(0.9048 0 0 0.9048 161.1408 -63.1907)" gradientUnits="userSpaceOnUse">
			<stop  offset="0" style="stop-color:#FFF599"/>
			<stop  offset="0.0387" style="stop-color:#FFF594"/>
			<stop  offset="0.0871" style="stop-color:#FFF488"/>
			<stop  offset="0.1408" style="stop-color:#FFF371"/>
			<stop  offset="0.1982" style="stop-color:#FFF149"/>
			<stop  offset="0.2582" style="stop-color:#FFEF00"/>
			<stop  offset="0.6209" style="stop-color:#F3901D"/>
			<stop  offset="0.7341" style="stop-color:#DD6B1F"/>
			<stop  offset="0.9141" style="stop-color:#C0321D"/>
			<stop  offset="1" style="stop-color:#B5121B"/>
		</radialGradient>
		<path class="st2" d="M202.64,113.46c0,0-16.26,58.45,47.27,44.47c0,0-23.27,16.24-43.53,10.91
			C206.38,168.84,188.16,155.13,202.64,113.46z"/>
		
			<radialGradient id="SVGID_3_" cx="57.2853" cy="255.0937" r="32.8796" gradientTransform="matrix(0.9048 0 0 0.9048 161.1408 -63.1907)" gradientUnits="userSpaceOnUse">
			<stop  offset="0" style="stop-color:#FFF599"/>
			<stop  offset="0.0387" style="stop-color:#FFF594"/>
			<stop  offset="0.0871" style="stop-color:#FFF488"/>
			<stop  offset="0.1408" style="stop-color:#FFF371"/>
			<stop  offset="0.1982" style="stop-color:#FFF149"/>
			<stop  offset="0.2582" style="stop-color:#FFEF00"/>
			<stop  offset="0.6209" style="stop-color:#F3901D"/>
			<stop  offset="0.7341" style="stop-color:#DD6B1F"/>
			<stop  offset="0.9141" style="stop-color:#C0321D"/>
			<stop  offset="1" style="stop-color:#B5121B"/>
		</radialGradient>
		<path class="st3" d="M203.08,112.89c0,0-12.26,36.25,3.3,55.95c0,0-47.65,57.74,2.36,111
			C208.74,279.84,135.14,219.87,203.08,112.89z"/>
		
			<radialGradient id="SVGID_4_" cx="44.7423" cy="235.3364" r="51.2498" gradientTransform="matrix(0.9048 0 0 0.9048 161.1408 -63.1907)" gradientUnits="userSpaceOnUse">
			<stop  offset="0" style="stop-color:#FFF599"/>
			<stop  offset="0.0387" style="stop-color:#FFF594"/>
			<stop  offset="0.0871" style="stop-color:#FFF488"/>
			<stop  offset="0.1408" style="stop-color:#FFF371"/>
			<stop  offset="0.1982" style="stop-color:#FFF149"/>
			<stop  offset="0.2582" style="stop-color:#FFEF00"/>
			<stop  offset="0.6209" style="stop-color:#F3901D"/>
			<stop  offset="0.7341" style="stop-color:#DD6B1F"/>
			<stop  offset="0.9141" style="stop-color:#C0321D"/>
			<stop  offset="1" style="stop-color:#B5121B"/>
		</radialGradient>
		<path class="st4" d="M249.87,157.96c0,0-16.01,11.4-39.16,11.7c0,0-50.56,60.96-1.97,110.18
			C208.74,279.84,163.18,231.65,249.87,157.96z"/>
		
			<radialGradient id="SVGID_5_" cx="17.0107" cy="275.494" r="283.6942" gradientTransform="matrix(0.9048 0 0 0.9048 161.1408 -63.1907)" gradientUnits="userSpaceOnUse">
			<stop  offset="0" style="stop-color:#FFF599"/>
			<stop  offset="0.0387" style="stop-color:#FFF594"/>
			<stop  offset="0.0871" style="stop-color:#FFF488"/>
			<stop  offset="0.1408" style="stop-color:#FFF371"/>
			<stop  offset="0.1982" style="stop-color:#FFF149"/>
			<stop  offset="0.2582" style="stop-color:#FFEF00"/>
			<stop  offset="0.6209" style="stop-color:#F3901D"/>
			<stop  offset="0.7341" style="stop-color:#DD6B1F"/>
			<stop  offset="0.9141" style="stop-color:#C0321D"/>
			<stop  offset="1" style="stop-color:#B5121B"/>
		</radialGradient>
		<path class="st5" d="M279.98,23.51L288,2.75c-91.1,40.49-110.72,141.08-113.67,162.01c-3.11,23.98-4.33,51.42,8.94,79.13
			c-13.37-30.98-17.88-81.1,30.66-145.33l2.57-8.15c13.73-15.28,31.17-29.17,52.37-35.69l9.22-26.5c0,0-36.29,15.59-65.69,51.63
			C243.43,37.57,279.98,23.51,279.98,23.51z"/>
		
			<radialGradient id="SVGID_6_" cx="57.8235" cy="317.2795" r="182.0732" gradientTransform="matrix(0.9048 0 0 0.9048 161.1408 -63.1907)" gradientUnits="userSpaceOnUse">
			<stop  offset="0" style="stop-color:#FFF599"/>
			<stop  offset="0.0387" style="stop-color:#FFF594"/>
			<stop  offset="0.0871" style="stop-color:#FFF488"/>
			<stop  offset="0.1408" style="stop-color:#FFF371"/>
			<stop  offset="0.1982" style="stop-color:#FFF149"/>
			<stop  offset="0.2582" style="stop-color:#FFEF00"/>
			<stop  offset="0.6209" style="stop-color:#F3901D"/>
			<stop  offset="0.7341" style="stop-color:#DD6B1F"/>
			<stop  offset="0.9141" style="stop-color:#C0321D"/>
			<stop  offset="1" style="stop-color:#B5121B"/>
		</radialGradient>
		<path class="st6" d="M284.84,133.52c0,0-104.77,66.2-86.14,126.93c0,0-19.67-56.8,103.82-126.41L284.84,133.52z"/>
		<linearGradient id="SVGID_7_" gradientUnits="userSpaceOnUse" x1="208.1337" y1="193.662" x2="208.1337" y2="193.662">
			<stop  offset="0" style="stop-color:#8DC63F"/>
			<stop  offset="0.2518" style="stop-color:#20B263"/>
			<stop  offset="1" style="stop-color:#00723E"/>
		</linearGradient>
		<path class="st7" d="M208.13,193.66"/>
		
			<radialGradient id="SVGID_8_" cx="60.2449" cy="212.2617" r="22.7471" gradientTransform="matrix(0.9048 0 0 0.9048 161.1408 -63.1907)" gradientUnits="userSpaceOnUse">
			<stop  offset="0" style="stop-color:#FFF599"/>
			<stop  offset="0.0387" style="stop-color:#FFF594"/>
			<stop  offset="0.0871" style="stop-color:#FFF488"/>
			<stop  offset="0.1408" style="stop-color:#FFF371"/>
			<stop  offset="0.1982" style="stop-color:#FFF149"/>
			<stop  offset="0.2582" style="stop-color:#FFEF00"/>
			<stop  offset="0.6209" style="stop-color:#F3901D"/>
			<stop  offset="0.7341" style="stop-color:#DD6B1F"/>
			<stop  offset="0.9141" style="stop-color:#C0321D"/>
			<stop  offset="1" style="stop-color:#B5121B"/>
		</radialGradient>
		<path class="st8" d="M207.69,124.39c0-16.61,15.9-30.25,36.17-31.68c-1.17-0.09-2.34-0.13-3.53-0.13
			c-21.92,0-39.71,14.24-39.71,31.81c0,17.57,17.78,31.82,39.71,31.82c1.19,0,2.37-0.07,3.53-0.13
			C223.59,154.64,207.69,141.01,207.69,124.39z"/>
		<g>
			<defs>
				<path id="SVGID_9_" d="M298.11,106.96c0,24.29-19.68,43.96-43.97,43.96c-24.28,0-43.98-19.68-43.98-43.96
					c0-24.28,19.7-43.97,43.98-43.97C278.43,62.99,298.11,82.67,298.11,106.96z"/>
			</defs>
			
				<radialGradient id="SVGID_10_" cx="142.7965" cy="141.397" r="86.2165" gradientTransform="matrix(0.9048 0 0 0.9048 161.1408 -63.1907)" gradientUnits="userSpaceOnUse">
				<stop  offset="0" style="stop-color:#FFF599"/>
				<stop  offset="0.0387" style="stop-color:#FFF594"/>
				<stop  offset="0.0871" style="stop-color:#FFF488"/>
				<stop  offset="0.1408" style="stop-color:#FFF371"/>
				<stop  offset="0.1982" style="stop-color:#FFF149"/>
				<stop  offset="0.2582" style="stop-color:#FFEF00"/>
				<stop  offset="0.6209" style="stop-color:#F3901D"/>
				<stop  offset="0.7341" style="stop-color:#DD6B1F"/>
				<stop  offset="0.9141" style="stop-color:#C0321D"/>
				<stop  offset="1" style="stop-color:#B5121B"/>
			</radialGradient>
			<use xlink:href="#SVGID_9_"  style="overflow:visible;fill:url(#SVGID_10_);"/>
			<clipPath id="SVGID_11_">
				<use xlink:href="#SVGID_9_"  style="overflow:visible;"/>
			</clipPath>
			<path class="st9" d="M204.7,114.54c0,0,26.67-65.67,77.47-42.08c0,0-48.22-19.49-72.34,50.28L204.7,114.54z"/>
			<path class="st9" d="M213.43,125.82c0,0,20.52-69.77,71.31-52.84c0,0-48.23-16.93-65.16,63.61L213.43,125.82z"/>
			<path class="st9" d="M222.66,141.22c0,0,12.82-83.63,68.23-66.18c0,0-53.86-14.37-59,73.88L222.66,141.22z"/>
			<path class="st9" d="M236,150.96c0,0,3.07-88.25,55.92-74.39c0,0-45.67-14.37-45.15,79.52L236,150.96z"/>
		</g>
		
			<radialGradient id="SVGID_12_" cx="73.479" cy="296.7896" r="120.9774" gradientTransform="matrix(0.9048 0 0 0.9048 161.1408 -63.1907)" gradientUnits="userSpaceOnUse">
			<stop  offset="0" style="stop-color:#FFF599"/>
			<stop  offset="0.0387" style="stop-color:#FFF594"/>
			<stop  offset="0.0871" style="stop-color:#FFF488"/>
			<stop  offset="0.1408" style="stop-color:#FFF371"/>
			<stop  offset="0.1982" style="stop-color:#FFF149"/>
			<stop  offset="0.2582" style="stop-color:#FFEF00"/>
			<stop  offset="0.6209" style="stop-color:#F3901D"/>
			<stop  offset="0.7341" style="stop-color:#DD6B1F"/>
			<stop  offset="0.9141" style="stop-color:#C0321D"/>
			<stop  offset="1" style="stop-color:#B5121B"/>
		</radialGradient>
		<path class="st10" d="M302.53,136.57v10.67c0,0-78.08,34.42-96.37,72.54C206.16,219.79,217.15,186.51,302.53,136.57z"/>
		<radialGradient id="SVGID_13_" cx="244.5941" cy="317.6549" r="43.2735" gradientUnits="userSpaceOnUse">
			<stop  offset="0" style="stop-color:#FFF599"/>
			<stop  offset="0.0387" style="stop-color:#FFF594"/>
			<stop  offset="0.0871" style="stop-color:#FFF488"/>
			<stop  offset="0.1408" style="stop-color:#FFF371"/>
			<stop  offset="0.1982" style="stop-color:#FFF149"/>
			<stop  offset="0.2582" style="stop-color:#FFEF00"/>
			<stop  offset="0.6209" style="stop-color:#F3901D"/>
			<stop  offset="0.7341" style="stop-color:#DD6B1F"/>
			<stop  offset="0.9141" style="stop-color:#C0321D"/>
			<stop  offset="1" style="stop-color:#B5121B"/>
		</radialGradient>
		<path class="st11" d="M248.6,283.82c8.89,1.42,17.44,3.87,25.54,7.18c-0.55-9.38-7.01-41.23-67.03-65.72
			C207.1,225.29,260.2,257.18,248.6,283.82z"/>
		<radialGradient id="SVGID_14_" cx="244.6184" cy="318.9423" r="42.9458" gradientUnits="userSpaceOnUse">
			<stop  offset="0" style="stop-color:#FFF599"/>
			<stop  offset="0.0387" style="stop-color:#FFF594"/>
			<stop  offset="0.0871" style="stop-color:#FFF488"/>
			<stop  offset="0.1408" style="stop-color:#FFF371"/>
			<stop  offset="0.1982" style="stop-color:#FFF149"/>
			<stop  offset="0.2582" style="stop-color:#FFEF00"/>
			<stop  offset="0.6209" style="stop-color:#F3901D"/>
			<stop  offset="0.7341" style="stop-color:#DD6B1F"/>
			<stop  offset="0.9141" style="stop-color:#C0321D"/>
			<stop  offset="1" style="stop-color:#B5121B"/>
		</radialGradient>
		<path class="st12" d="M223.34,282.53c2.2-0.12,4.41-0.2,6.63-0.2c4.66,0,9.25,0.3,13.77,0.83c2.43-6.07,7.81-29.42-36.66-57.88
			C207.1,225.29,245.22,265.45,223.34,282.53z"/>
		<radialGradient id="SVGID_15_" cx="208.937" cy="298.191" r="71.9632" gradientUnits="userSpaceOnUse">
			<stop  offset="0" style="stop-color:#FFF599"/>
			<stop  offset="0.0387" style="stop-color:#FFF594"/>
			<stop  offset="0.0871" style="stop-color:#FFF488"/>
			<stop  offset="0.1408" style="stop-color:#FFF371"/>
			<stop  offset="0.1982" style="stop-color:#FFF149"/>
			<stop  offset="0.2582" style="stop-color:#FFEF00"/>
			<stop  offset="0.6209" style="stop-color:#F3901D"/>
			<stop  offset="0.7341" style="stop-color:#DD6B1F"/>
			<stop  offset="0.9141" style="stop-color:#C0321D"/>
			<stop  offset="1" style="stop-color:#B5121B"/>
		</radialGradient>
		<path class="st13" d="M187.66,290.26c9.5-3.69,19.59-6.21,30.11-7.3c5.83-5.08,18.26-21.76-11.36-56.98c0,0-5.53,11.05-4.84,16.59
			C201.57,242.57,225.3,259.28,187.66,290.26z"/>
		<radialGradient id="SVGID_16_" cx="229.9175" cy="292.9738" r="46.953" gradientUnits="userSpaceOnUse">
			<stop  offset="0" style="stop-color:#FFF599"/>
			<stop  offset="0.0387" style="stop-color:#FFF594"/>
			<stop  offset="0.0871" style="stop-color:#FFF488"/>
			<stop  offset="0.1408" style="stop-color:#FFF371"/>
			<stop  offset="0.1982" style="stop-color:#FFF149"/>
			<stop  offset="0.2582" style="stop-color:#FFEF00"/>
			<stop  offset="0.7335" style="stop-color:#F3901D"/>
		</radialGradient>
		<path class="st14" d="M229.98,285.08c23.95,0,46.2,7.23,64.74,19.6c0.17,0.1,0.34,0.19,0.51,0.28
			c-14.28-14.28-40.13-23.99-65.31-23.99s-51.41,10.09-65.31,23.99c0.41-0.24,0.84-0.46,1.26-0.7
			C184.27,292.16,206.29,285.08,229.98,285.08z"/>
		<g>
			<path class="st0" d="M294.37,158.72h-1.8v5.46c0,0.17-0.04,0.21-0.24,0.21h-1.06c-0.16,0-0.23-0.05-0.23-0.21v-5.46h-1.76
				c-0.14,0-0.19-0.06-0.19-0.2v-0.89c0-0.17,0.04-0.21,0.19-0.21h5.1c0.16,0,0.2,0.04,0.2,0.21v0.89
				C294.57,158.67,294.51,158.72,294.37,158.72z"/>
			<path class="st0" d="M301.16,160.39h-0.06l-0.41,0.93l-0.83,1.83c-0.15,0.34-0.26,0.44-0.57,0.44h-0.55
				c-0.33,0-0.4-0.1-0.56-0.44l-0.62-1.29l-0.62-1.34h-0.06v3.69c0,0.18-0.06,0.2-0.23,0.2h-1.02c-0.15,0-0.23-0.02-0.23-0.2v-6.08
				c0-0.51,0.17-0.7,0.64-0.7h0.58c0.37,0,0.51,0.12,0.67,0.47l1.09,2.43l0.62,1.41h0.04l0.68-1.55l1.01-2.27
				c0.16-0.36,0.31-0.49,0.73-0.49h0.49c0.43,0,0.64,0.15,0.64,0.65v6.13c0,0.18-0.06,0.2-0.23,0.2h-0.99
				c-0.15,0-0.22-0.02-0.22-0.2V160.39z"/>
		</g>
	</g>
</g>
</svg>
