<svg xmlns="http://www.w3.org/2000/svg" width="90" height="87" viewBox="0 0 90 87">
    <g fill="none" fill-rule="evenodd">
        <path d="M2 0h87v87H2z"/>
        <path fill="#2D2DE4" fill-rule="nonzero" d="M50.992.324c-5.274-.94-9.41.298-11.771 1.986-.098.07-.037.2.078.163.007 0 .013-.004.017-.007 2.284-.817 4.816-.84 7.482-.074 5.166 1.484 8.344 5.214 11.343 10.74 7.28 13.423 6.977 38.03 6.977 38.346h12.894C75.892 8.93 60.16 1.95 50.992.32v.004zm22.635 47.11l-2.216-1.67-2.006 1.668.633-2.703-2.212-1.664h2.602l.622-2.684.985 2.684h2.623l-2.016 1.675.985 2.695zm-54.814-1.99l.826-5.642h3.11l-.963 6.5c-.054.428-.09.804-.09 1.126 0 .931.551 1.486 1.502 1.486.609 0 1.218-.233 1.596-.61.392-.39.626-.983.77-1.968l.961-6.533h3.132l-1.022 6.964c-.27 1.77-.7 2.827-1.414 3.58-.896.929-2.36 1.431-4.115 1.431-2.81 0-4.528-1.575-4.528-4.117 0-.5.054-1.038.233-2.219l.002.002zm19.553-5.642l-.387 2.65h-3.517l-.25 1.7h3.35l-.397 2.684h-3.347l-.285 1.971h3.51l-.393 2.667h-6.645l1.719-11.671h6.642zm8.378 0l-.394 2.667h-3.266l-.305 2.077h3.089l-.396 2.667H42.39l-.631 4.263h-3.132l1.716-11.673h6.401zM17.601 74.915L16.307 83.7h3.567l-.43 2.886h-6.678l1.719-11.671h3.114l.002-.002zm11.843.004l-.39 2.649h-3.512l-.25 1.7h3.35l-.396 2.685h-3.348l-.287 1.97h3.509l-.394 2.667h-6.638l1.716-11.671h6.64zm45.223 0l-.392 2.649h-3.51l-.25 1.7h3.347l-.394 2.685h-3.35l-.282 1.97h3.504l-.392 2.667H66.31l1.716-11.671h6.64zM55.38 80.555l.829-5.637h3.114l-.957 6.499a9.665 9.665 0 0 0-.087 1.126c0 .931.544 1.486 1.492 1.486.61 0 1.218-.233 1.595-.609.393-.392.626-.983.77-1.968l.965-6.534h3.132l-1.057 6.964c-.267 1.77-.696 2.828-1.414 3.58-.893.929-2.327 1.431-4.08 1.431-2.81 0-4.528-1.574-4.528-4.117 0-.5.045-1.037.226-2.218v-.003zm-7.31 1.793l.36-2.454h5.46c-.196 4.172-2.647 7.017-6.068 7.017-1.573 0-3.197-.644-4.217-1.664-.986-.985-1.451-2.275-1.451-3.993 0-3.828 2.847-6.678 6.655-6.678 1.11 0 2.075.324 3.006.968.514.353.811.622 1.357 1.225l-2.14 1.925c-.78-.877-1.518-1.27-2.458-1.27-.913 0-1.646.287-2.2.876-.71.735-1.175 1.899-1.175 2.882 0 1.683 1.229 2.936 2.875 2.936 1.127 0 1.897-.537 2.506-1.77h-2.51zm-9.527-7.43l2.917 11.67h-2.954l-.704-2.822 2.192-1.814H37.36l-.929-3.741h-.035l-3.921 8.378h-3.186l5.496-11.671h3.76zM70.92 54.027l-.611 4.163h-3.663l-2.088 14.172h-4.92l2.088-14.172h-3.704l.61-4.163h12.288zm6.732 0l-.994 6.692h6.383l.984-6.692h4.893l-2.699 18.335h-4.894l1.099-7.395h-6.388l-1.094 7.395h-4.948l2.699-18.335h4.959zm-70.618 0l2.784 5.455 4.05-5.455h5.624L12.01 64.123l-1.213 8.24H5.902l1.218-8.211L2 54.027h5.033zm32.803 8.859l1.294-8.859h4.892L44.51 64.234c-.082.675-.139 1.266-.139 1.773 0 1.462.866 2.334 2.354 2.334.957 0 1.883-.366 2.472-.957.62-.618.986-1.545 1.21-3.093l1.514-10.264h4.937l-1.614 10.94c-.422 2.784-1.098 4.442-2.223 5.623-1.407 1.461-3.682 2.249-6.438 2.249-4.41 0-7.112-2.473-7.112-6.467 0-.787.087-1.63.365-3.486z"/>
        <path fill="#40DF5E" fill-rule="nonzero" d="M20.009 37.253h6.916c.957-4.739 2.71-13.178 6.723-20.57C38.386 7.955 43.38 4.797 48.895 4.956l.56.022c.162 0 .223-.122.051-.233a12.428 12.428 0 0 0-6.688-1.908c-3.502.048-6.542 1.862-9.511 4.825-2.795 2.786-9.318 11.014-13.296 29.59"/>
        <path fill="#2D2DE4" fill-rule="nonzero" d="M50.82 46.93h2.775l-.93-3.832h-.035l-1.81 3.832zm3.959-7.125l2.914 11.67h-2.95l-.484-1.878h-4.692l-.859 1.879h-3.186l5.496-11.671h3.761zM35.154 56.222c1.63 1.657 2.5 4.019 2.5 6.579 0 2.475-1.122 5.203-2.922 7.003-1.997 2.023-4.64 3.037-8.015 3.037-5.2 0-9.027-3.883-9.027-9.168 0-3.993 2.502-7.762 6.16-9.309 1.292-.533 2.98-.87 4.554-.87h.17c2.839.111 4.894.957 6.58 2.728zm-12.557 7.403c0 2.667 2.008 4.733 4.646 4.733 3.04 0 5.479-2.553 5.479-5.71 0-2.61-2.036-4.617-4.646-4.617h-.087a5.56 5.56 0 0 0-5.392 5.594z"/>
    </g>
</svg>
