<svg xmlns="http://www.w3.org/2000/svg" width="90" height="87" viewBox="0 0 90 87">
    <g fill="none" fill-rule="evenodd">
        <path fill="#D70077" d="M19.754 81.825v1.004c-.7-.205-1.21-.251-1.575-.251-.844 0-1.3.494-1.3 1.697 0 1.186.372 1.605 1.308 1.605.395 0 .844-.038 1.696-.32v1.02a4.846 4.846 0 0 1-1.742.335c-1.666 0-2.534-.571-2.534-2.587 0-2.031.997-2.785 2.595-2.785.449 0 .95.046 1.552.282zm4.275 5.036v-2.206h-2.205v2.206h-1.256v-5.257h1.256v2.024h2.205v-2.024h1.256v5.257h-1.256zm5.356-.997h-1.932c-.213.564-.304.8-.373.997h-1.338l2.039-5.25h1.33l2.001 5.25h-1.339l-.388-.997zm-.996-2.677l-.555 1.673h1.163l-.562-1.673h-.046zm7.965 3.674l-.106-3.553-1.202 2.267h-.944l-1.224-2.198-.1 3.484h-1.247l.342-5.257h1.316l1.385 2.648 1.324-2.648h1.346l.335 5.257h-1.225zm2.024 0v-5.257h2.313c1.21 0 2.039.746 2.039 1.826 0 .76-.442 1.848-2.031 1.848h-1.066v1.583h-1.255zm2.298-4.222h-1.043v1.605h1.088c.593 0 .723-.456.723-.821 0-.457-.281-.784-.768-.784zm2.7 4.222v-5.257h1.263v5.257h-1.263zm7.197-2.571c0 1.339-.494 2.625-2.587 2.625-1.97 0-2.548-.921-2.548-2.625 0-1.94.958-2.747 2.556-2.747 1.78 0 2.58.921 2.58 2.747zm-3.864 0c0 .988.25 1.597 1.255 1.597 1.019 0 1.324-.578 1.324-1.597 0-1.005-.251-1.689-1.324-1.689-1.02 0-1.255.745-1.255 1.689zm9.41-2.678v5.249h-1.072l-2.473-3.233v3.233h-1.24v-5.257h1.065l2.48 3.241v-3.233h1.24zm.686 3.971c.768.228 1.498.29 1.985.29.677 0 .89-.214.89-.518 0-.92-2.853-.533-2.853-2.282 0-1.165.99-1.522 2.092-1.522.472 0 1.157.03 1.796.32v.996a6.077 6.077 0 0 0-1.78-.266c-.556 0-.83.137-.83.403 0 .289.32.403 1.073.647.89.289 1.78.586 1.78 1.719 0 1.149-.913 1.552-2.206 1.552-.517 0-1.21-.038-1.947-.335v-1.004zm8.3 1.278v-2.206h-2.207v2.206h-1.255v-5.257h1.255v2.024h2.207v-2.024h1.255v5.257h-1.255zm2.13 0v-5.257h1.263v5.257h-1.263zm2.138 0v-5.257h2.312c1.21 0 2.04.746 2.04 1.826 0 .76-.442 1.848-2.032 1.848h-1.065v1.583h-1.255zm2.297-4.222h-1.042v1.605h1.088c.593 0 .722-.456.722-.821 0-.457-.28-.784-.768-.784zm-7.083-9.628l-1.946.176a.308.308 0 0 1-.336-.307v-.87c0-.145.102-.27.245-.3l2.566-.542h1.174c.17 0 .308.138.308.308v8.291c0 .17-.137.309-.308.309h-1.395a.308.308 0 0 1-.308-.309v-6.756zm-5.609 2.312h3.02c.17 0 .307.138.307.308v1.047c0 .17-.137.308-.308.308h-3.019a.308.308 0 0 1-.308-.308v-1.047c0-.17.138-.308.308-.308zm-36.23-4.151c.17 0 .308.138.308.308v5.145c0 2.513-1.676 3.544-3.906 3.544-2.694 0-3.919-1.327-3.919-3.544V71.48c0-.17.139-.308.309-.308h1.51c.17 0 .308.138.308.308v5.17c0 1.083.619 1.766 1.792 1.766 1.121 0 1.766-.631 1.766-1.766v-5.17c0-.17.138-.308.308-.308h1.524zm9.553.308v8.278c0 .17-.138.308-.308.308h-1.357a.308.308 0 0 1-.245-.12l-4.097-5.358v5.17c0 .17-.138.308-.308.308h-1.485a.308.308 0 0 1-.308-.308v-8.291c0-.17.138-.308.308-.308h1.345c.096 0 .186.045.244.12l4.11 5.372V71.48c0-.17.138-.308.308-.308h1.485c.17 0 .308.138.308.308zm4.747-.308c3.493 0 4.538 2.062 4.538 4.46 0 2.024-.877 4.434-4.396 4.434H33.81a.308.308 0 0 1-.308-.308V71.48c0-.17.138-.308.308-.308h3.237zm-1.418 1.74v5.401h1.56c1.263 0 2.204-.657 2.204-2.642 0-2.218-1.057-2.76-2.295-2.76H35.63zm13.516 7.154h-6.397a.308.308 0 0 1-.308-.308V71.48c0-.17.138-.308.308-.308h6.268c.17 0 .308.138.308.308v1.137c0 .17-.138.308-.308.308H44.58v1.624h4.049c.17 0 .308.138.308.308v1.124c0 .17-.138.309-.308.309h-4.05v2.036h4.566c.17 0 .308.138.308.308v1.124c0 .17-.138.308-.308.308zm8.974-.462a.308.308 0 0 1-.266.462h-1.678a.308.308 0 0 1-.273-.164l-1.511-2.865h-1.029v-1.74h1.222c1.083 0 1.315-.632 1.315-1.238 0-.734-.452-1.147-1.405-1.147h-1.818v2.385h.007v1.74h-.007v2.721c0 .17-.138.308-.308.308h-1.51a.308.308 0 0 1-.309-.308v-8.291c0-.17.138-.308.308-.308h3.727c2.243 0 3.416 1.07 3.416 2.913 0 .928-.335 2.076-1.56 2.63l1.68 2.902zm15.984-5.354c0 2.207-1.797 4.279-3.42 5.74a.306.306 0 0 1-.204.078h-1.65a.307.307 0 0 1-.207-.533c1.046-.967 1.954-1.855 2.475-2.486l-.051-.064c-.231.077-.488.116-.77.116-2.094 0-3.005-1.22-3.005-2.954 0-1.695 1.143-3.07 3.454-3.07 2.658 0 3.378 1.53 3.378 3.173zm-3.378 1.284c.912 0 1.438-.616 1.438-1.387 0-.822-.295-1.438-1.45-1.438-1.105 0-1.478.72-1.478 1.476 0 .797.437 1.35 1.49 1.35zm-39.94-9.289l-.854 3.38h-1.314l-1.592-5.037h1.314l.89 3.453h.045l.897-3.453h1.278l.89 3.453h.044l.898-3.453h1.277l-1.554 5.037H31.69l-.876-3.38h-.03zm8.896.912c0 1.285-.474 2.519-2.481 2.519-1.891 0-2.446-.884-2.446-2.519 0-1.861.92-2.635 2.452-2.635 1.709 0 2.475.884 2.475 2.635zm-3.708 0c0 .949.241 1.533 1.205 1.533.977 0 1.27-.554 1.27-1.533 0-.963-.241-1.62-1.27-1.62-.978 0-1.205.715-1.205 1.62zm8.846 2.468l-.102-3.41-1.154 2.176h-.905l-1.175-2.11-.095 3.344h-1.197l.328-5.044h1.263l1.329 2.54 1.27-2.54h1.292l.32 5.044H44.82zm5.91 0h-3.97v-5.037h3.898v.993h-2.686v.92h2.467v.985h-2.467v1.153h2.759v.986zm5.212-5.037v5.037h-1.029l-2.372-3.102v3.102h-1.19V64.58h1.022l2.38 3.11v-3.103h1.19zm1.255-.314c.437 0 .65.285.65.68 0 .145-.044.4-.117.561l-.358.847c-.066.16-.147.205-.336.205h-.343l.234-1.118a.585.585 0 0 1-.365-.562c0-.335.292-.613.635-.613zm1.123 4.124a6.897 6.897 0 0 0 1.905.278c.65 0 .854-.205.854-.497 0-.883-2.737-.51-2.737-2.19 0-1.116.948-1.46 2.007-1.46.453 0 1.11.03 1.723.307v.957a5.828 5.828 0 0 0-1.708-.256c-.533 0-.796.131-.796.387 0 .277.307.387 1.03.62.854.278 1.707.563 1.707 1.65 0 1.102-.876 1.489-2.116 1.489-.497 0-1.16-.037-1.869-.321v-.964zM34.53 58l-.41-.4a14.695 14.695 0 0 1 10.546-4.442c4.133 0 7.869 1.701 10.545 4.442l-.41.4a14.124 14.124 0 0 0-10.135-4.268A14.124 14.124 0 0 0 34.53 58zm4.03 4.549l-.43-.379a8.67 8.67 0 0 1 6.536-2.963 8.67 8.67 0 0 1 6.536 2.963l-.43.379a8.099 8.099 0 0 0-6.106-2.768 8.098 8.098 0 0 0-6.105 2.768zm14.22-5.216c.171.132.16.265.116.397l-1.063 3.69-.603-.552.205-.712-.708-.544.612-.398.302.231.365-1.266-2.318 1.506-.68-.382 3.216-2.089c.117-.075.242-.121.413.01l.143.11zM37.91 59.982c.215.026.454-.059.65-.219.198-.16.329-.376.348-.592.024-.263-.048-.446-.3-.755l-1.278-1.574.566-.46 1.4 1.72c.291.361.411.725.367 1.114-.05.439-.26.795-.645 1.11-.387.313-.779.445-1.219.404-.39-.036-.721-.228-1.014-.587l-1.399-1.721.568-.461 1.279 1.573c.25.309.415.418.677.448zm5.515-4.66l-1.814.369.169.827 1.66-.337.135.665-1.66.338.07.349c.08.384.232.451.577.381l1.336-.272.138.676-1.377.28c-.637.13-1.213-.051-1.374-.842l-.473-2.326c-.035-.171.058-.292.215-.324l2.261-.46.137.676zm3.504 1.747l-.388 1.484-.443-.115c-.154-.04-.24-.167-.196-.336l.602-2.296c.205-.78.79-.93 1.419-.764l1.359.356-.176.667-1.318-.345c-.34-.09-.497-.03-.597.348l-.09.344 1.64.43-.174.658-1.638-.43zM26.314 24.169c0-11.248 9.372-20.366 20.934-20.366 11.561 0 20.934 9.118 20.934 20.366 0 11.247-9.373 20.365-20.934 20.365-11.562 0-20.934-9.118-20.934-20.365m-6.252.19c0 13.34 10.815 24.154 24.155 24.154 13.34 0 24.154-10.815 24.154-24.155 0-13.34-10.814-24.154-24.154-24.154S20.062 11.018 20.062 24.358"/>
        <path fill="#D09EBC" d="M54.362 33.45c-1.413-1.707-3.567-3.256-6.17-4.407v-.001c-.51-.226-1.04-.432-1.581-.625a2.8 2.8 0 0 1 .272-.345c3.396 1.03 6.348 2.7 8.45 4.692A2.335 2.335 0 0 1 58 36.377c.731 1.625.9 3.323.355 4.973l-.036.106-.018.01c-.566 1.678-1.921 3.464-4.649 5.133-8.943 5.474-27.937 3.942-36.924-6.065 0 0 1.43 1.327 7.659 3.831 6.23 2.504 16.544 3.42 25.537 0 1.284-.488 2.31-1.019 3.14-1.57 1.314-.937 2.283-2.022 2.758-3.159a14.038 14.038 0 0 0 .052-.13c.031-.08.059-.16.085-.24l.009-.029.027-.09.008-.032a5.943 5.943 0 0 0 .067-.268l.006-.03.029-.148a4.042 4.042 0 0 0 .047-.335l.002-.031c.006-.05.01-.1.013-.15v-.02c.004-.048.006-.096.008-.144v-.02c.002-.052.003-.103.002-.154v-.028a6.28 6.28 0 0 0-.003-.156v-.003a4.67 4.67 0 0 0-.01-.156l-.001-.023a4.705 4.705 0 0 0-.015-.161 2.335 2.335 0 0 1-1.787-3.838zM47.248 3.803c11.561 0 20.934 9.118 20.934 20.366 0 .723-.04 1.438-.115 2.142.977-10.558-9.762-19.863-20.616-20.886-4.883-.46-10.573 1.058-14.247 3.641 3.714-3.27 8.64-5.263 14.044-5.263zm-17.65 28.4c-.307 1.23.106 2.654.84 4.105a20.136 20.136 0 0 1-2.97-5.454c1.734-2.507 5.811-3.991 10.902-4.012h.007c.062.068.13.135.197.198h-.003c-4.665.098-8.176 1.965-8.973 5.163zm9.288-5.357c1.83.028 3.781.241 5.796.662.529.11 1.048.237 1.56.377 0 0-.002 0 0 0-.106.105-.196.21-.276.314-.002-.001 0 0 0 0a23.631 23.631 0 0 0-1.602-.464c-1.867-.466-3.666-.692-5.329-.698a3.262 3.262 0 0 1-.15-.191z"/>
        <path fill="#D70077" d="M40.963 15.068a6.15 6.15 0 0 1-.501.271c-.415.2-.883.358-1.211.495-.56.232-.43.39-1.554.562-1.083.166-1.775.1-2.459.211-.147.024-.444.15-.88.205-.344.044-.65.08-.834.068-.124.106-.044.134.104.31.106.128-.33.102-.354.098-.404-.073-.572-.66-.595-.74-.06-.206-.126-.44-.005-.608.153-.21.514-.184.874-.159.368.027.576.102.746.137.463.096.718-.086 1.854-.539.351-.14 1.043-.415 1.838-.665.887-.28.952-.23 1.34-.399.223-.098.491-.242.782-.462 1.07-.255.862 1.17.855 1.214.02-.053.705-1.61-.834-1.665.534-.508 1.732-1.492 3.261-2.039.991.888 2.742 1.402 3.306 1.001.309-.22.365-.363.517-.543l.406.662c.156.391.319.882.436 1.462.135.666.307 1.177.31 1.53.005.72-.076 1.069-.154 1.462-.154.785-.662 2.103-.868 2.919-.088.349-.149.599-.19.872 0 0-.021.154-.036.307-.067.732.172 2.026.19 2.122a6.257 6.257 0 0 0-1.082-.653 6.361 6.361 0 0 0-2.151-.584 8.26 8.26 0 0 1 1.943.77c.415.231.895.529 1.364 1.075.324.379.492.708.72 1.16.243.484.544 1.177.781 2.064-.278-.03-1.286-.105-2.232.56a3.216 3.216 0 0 0-1.06 1.277 3.597 3.597 0 0 0-.629-1.547c-.208-.288-.409-.46-.81-.806-.158-.135-.27-.22-.432-.267a1.203 1.203 0 0 0-.724.074c-.432.287-.707.428-1.14.717-.675.451-.897.497-1.568.948a3.398 3.398 0 0 1-1.231-.882 3.48 3.48 0 0 1-.838-2c.723-.448 2.231-1.338 3.372-4.19 1.108-2.766.63-5.197.426-6.033-.27.072-.783.156-1.053.228zm12.866-6.483c1.011.183-.105.653.36.782.222.061-.466.665-.564.77-.352.378-.361.086-.931.484-.253.176-2.076 1.871-2.96 2.86-.288.32-.708.69-1.317 1.018a15.95 15.95 0 0 1-.137-.6 8.536 8.536 0 0 0-.272-.997c.175-.194.382-.391.63-.577.434-.327.543-.282 1.595-.897 1.04-.608 1.367-.905 1.587-1.15.27-.302.468-.522.614-.882.082-.201.086-.294.195-.43.02-.025.67-.477 1.2-.38zM41.694 11.16c-.622.253-2.366.158-2.606.037 1.38-.277 2.287-.846 2.776-1.214.343-.257.875-.658 1.372-1.35.68-.946.727-1.65 1.384-1.944.211-.095.428-.12.628-.113.101-.076.202-.117.29-.095a.912.912 0 0 1 .14.048c.146-.113.27-.121.438-.18.62-.212 1.711.024 2.083.517 1.112 1.47-.847 4.123-1.132 4.14-.1.007-.27-.044-.367.057-.085.087.357.379.441.588 0 0-.262.672-.935.59-.452-.054-1.131-.451-1.884-1.093.206-.137.426-.35.54-.676a1.402 1.402 0 0 0-.023-.948 3.849 3.849 0 0 1-.075-.492c-.014-.003-.029 0-.042-.006-.084-.036-.141-.131-.178-.255a.678.678 0 0 1-.086-.11c-.158-.254-.092-.398-.093-.564-.047.14-.014.769-.518 1.257a1.707 1.707 0 0 1-.827.436c-.108.528-.564 1.06-1.326 1.37zM49.5 31.55c.107 1.608.312 2.845.42 4.454.01.13.034.494.216.912.082.19.174.338.242.436-.389.172-.655.156-.83.105-.122-.036-.221-.094-.432-.14a2.02 2.02 0 0 0-.475-.048 7.002 7.002 0 0 0-.111-1.118c-.113-.62-.128-.967-.644-2.086a5.637 5.637 0 0 1-.432-3.365c-.078-.373-.527-1.155-1.155-1.579.247-1.133 1.62-2.001 2.49-2.119l.093-.012c.052.192.244.771.346 1.513.117.849.175 1.282.17 1.687-.008.536.062.766.102 1.36zm-.793 5.895c.028.05.274.47.74.523.067.008.335.038.553-.117.134-.095.133-.176.287-.307.123-.104.303-.206.445-.223.328-.04.453.367 1.009.802.456.357.643.295 1.202.768.358.303.435.458.41.588-.036.192-.29.291-.413.339-.207.08-.557.155-1.327-.065-.552-.158-.447-.217-.873-.326-.581-.148-.834-.051-1.574-.245-.348-.091-.464-.158-.55-.264-.226-.275-.156-.691-.123-.885.044-.267.144-.469.214-.588zM33.039 24.79a.802.802 0 0 0 .043.29c.006.02-.07-.197-.23-.362a.928.928 0 0 0-.459-.242 1.436 1.436 0 0 0-.678.01l-.057.013c-.191.046-.467.114-.66.375a.976.976 0 0 0-.177.62c-.213-.22-.454-.099-.592-.15-.39-.143-.607-.016-1.15-.156-.306-.08-.47-.123-.53-.258-.137-.312.397-.88.877-1.164a2.35 2.35 0 0 1 1.179-.318c.437.323.734.338.921.295.225-.052.297-.186.83-.397.16-.062.34-.124.513-.049a.486.486 0 0 1 .176.141c.192.223.24.601.139.91-.058.175-.137.245-.145.442zm4.888 1.345c.342.865 1.425 1.622 2.36 1.81-.985.728-1.762 1.484-2.103 1.918-.077.098-.218.285-.474.414-.607.307-1.43.076-1.957-.33-.157-.122-2.051-2.894-3.949-3.946-.41-.227-.631-.324-.96-.49-.12-.061.484-.688 1.074-.75.785-.082 1.557.669 1.85.797.413.18.644.112 1.124.324.202.09.336.179.485.279.703.47 1.295 1.171 1.576 1.525.494-.408.824-1.243.974-1.55zm20.107 9.267a1.884 1.884 0 1 1-3.768 0 1.884 1.884 0 0 1 3.768 0z"/>
        <path fill="#D09EBC" d="M48.88 26.989a3.363 3.363 0 0 0-1.886.351c.17-.313.51-1.05.447-2.023a3.894 3.894 0 0 0-.42-1.49c-.071-.143-.152-.283-.152-.283a4.58 4.58 0 0 0-.403-.584c.295.196.607.447.915.805.324.379.492.708.719 1.16.243.484.544 1.177.782 2.064.052.191.244.771.346 1.513.117.849.175 1.282.17 1.686-.009.537.062.767.101 1.36.108 1.61.313 2.846.421 4.455.01.13.034.494.216.912.075.174.156.307.222.405-.19-.036-.637-.265-.811-.679-.128-.302-.062-.592-.038-.711.214-1.065.061-3.428-.648-4.58-.104-.168-.39-.413-.233-.809.106-.265.197-.313.332-.589.174-.357.09-.45.054-.741-.12-.973-.808-1.702-1.032-1.925l-.025-.01c.293-.144.584-.24.832-.275l.091-.012zm-.507-19.835c.698 1.504-1.04 3.836-1.307 3.852-.098.006-.269-.045-.366.056-.032.033.01.094.08.17.116.125.308.287.361.418l-.012.029c-.06.127-.333.63-.92.561.27-.083.893-.414.512-.85-.15-.169-.458-.396-.42-.474.018-.036.123.008.283 0 .313-.015.636-.223.632-.395-.002-.11-.138-.172-.111-.22.035-.065.268.055.431-.066.01-.007.07-.052.06-.082-.023-.068-.354.053-.445-.073-.05-.069-.023-.203.04-.236.03-.016.062-.006.106.007.27.083.31.116.363.1.09-.025.123-.159.15-.265.01-.04.036-.16.01-.492-.018-.215-.04-.303.013-.343.044-.033.09.002.21-.02a.517.517 0 0 0 .184-.07c.159-.105.182-.352.162-.504a.694.694 0 0 0-.168-.363c-.353-.411-1.104-.25-1.146-.24a1.036 1.036 0 0 1 1.144-.166.59.59 0 0 0-.122-.246c-.19-.227-.494-.214-.536-.212.099-.027.31-.07.556.003.1.03.183.073.256.121zm.012 5.599a4.99 4.99 0 0 0-.33.305c-.016-.052-.03-.104-.047-.156.175-.194.382-.391.629-.577.435-.327.543-.282 1.596-.897 1.04-.608 1.367-.905 1.587-1.15.27-.301.468-.523.615-.882.081-.202.085-.294.194-.43.02-.024.67-.477 1.2-.381.333.06.433.152.437.252-.04-.01-.082-.022-.124-.029-.11-.016-.608-.093-1.022.186-.401.27-.397.655-.71 1.151-.25.398-.585.625-1.245 1.064-1.394.925-1.899.814-2.78 1.544zm1.407.17c.774-.642 1.324-1.02 1.734-1.248-.616.584-1.331 1.29-1.793 1.805a4.82 4.82 0 0 1-1.316 1.019l-.068-.286a25.432 25.432 0 0 1 1.443-1.29zm-8.384-2.18a4.818 4.818 0 0 1-2.225.431c1.326-.284 2.204-.833 2.681-1.192.342-.257.875-.658 1.372-1.35.68-.946.727-1.65 1.383-1.944.212-.095.43-.12.63-.113.1-.076.2-.117.29-.095a.929.929 0 0 1 .139.048c.147-.113.27-.121.438-.18.213-.072.434-.092.652-.073a1.186 1.186 0 0 0-.63.194c-.18.123-.293.288-.504.297a.472.472 0 0 1-.22-.047c-.01.224-.146.36-.236.35-.08-.01-.163-.138-.169-.31a1.172 1.172 0 0 1-.834.528c-.091.347-.693 2.495-2.767 3.455zm3.236 1.398a5.456 5.456 0 0 0-1.042.026c-.695.083-1.751.21-2.238.98a1.666 1.666 0 0 0-.246.763l-.056.003c-.11-.272-.374-.491-.932-.511.533-.508 1.731-1.492 3.26-2.039.351.315.799.581 1.254.778zm-4.536 1.712c.271-.065.46-.021.591.08l-.018.001a6.306 6.306 0 0 1-1.78 1.215c-1.08.485-1.341.214-3.214.813-.62.2-.896.326-1.392.318-.657-.011-1.123-.25-1.3-.029-.113.143-.04.398.038.54.142.261.426.38.61.436-.003.085-.348.065-.37.061-.403-.073-.572-.66-.595-.74-.058-.206-.126-.44-.004-.608.153-.21.514-.184.875-.159.367.027.575.102.746.137.462.096.718-.086 1.853-.539.351-.14 1.044-.415 1.838-.665.886-.28.952-.23 1.34-.399.223-.098.491-.242.782-.462zm5.358-.123c.128.063 1.7.759 2.048.402.228-.232.14-.782.031-1.463-.031-.197-.063-.334-.083-.442l.157.256c.156.39.319.883.436 1.462.135.666.307 1.177.31 1.53.005.721-.076 1.069-.154 1.463-.154.783-.662 2.102-.868 2.918-.088.35-.149.599-.19.872 0 0-.021.154-.036.306-.067.733.171 2.027.19 2.123a6.296 6.296 0 0 0-3.184-1.232c.04-.021.604.028 2.739.306-.337-.205-1.64-1.192-1.99-2.598.338.844 1.665 1.588 1.932 1.588.115-.463.208-1.84-.068-2.942a5.118 5.118 0 0 0-.874-1.83c.627.35 1.492.375-.396-2.719zm-3.442 1.137c.575 2.427.541 3.304 1.365 5.043a4.033 4.033 0 0 1-.633-.886c-.176-.335-.318-.628-.3-.582.544 1.3-.568 2.763-1.285 3.563-.027.03.329.617 1.085.426-.112.128-1.017 1.318-2.117 1.986-1.336.811-1.917.69-1.92.646.722-.449 2.23-1.338 3.371-4.19a9.994 9.994 0 0 0 .433-6.004l.001-.002zm-12.598 8.9a2.351 2.351 0 0 1 1.179-.318c.164.121.308.2.434.247.21.08.37.075.488.048.224-.052.296-.186.83-.397.158-.062.34-.124.512-.049a.486.486 0 0 1 .176.141c.125.146.182.357.184.572-.033-.166-.085-.234-.131-.267-.126-.088-.291-.044-.5.014-.486.136-.598.35-.941.362-.154.006-.238-.033-.402-.08-.055-.015-.91-.25-1.644-.05-.217.06-.63.213-1.05.67l.009-.02a.975.975 0 0 1 .093-.17 1.54 1.54 0 0 1 .072-.1l.037-.05c.04-.046.082-.093.127-.14l.013-.01a2.414 2.414 0 0 1 .303-.26l.048-.036c.054-.038.109-.075.163-.107zM52.944 38.89c.12.102.205.186.269.258.025.105 0 .151-.008.167-.038.06-.107.083-.194.11a.974.974 0 0 1-.624.002 1.082 1.082 0 0 1-.413-.257c-.115-.108-.162-.193-.24-.307-.219-.32-.415-.606-.724-.748-.21-.096-.357-.073-.492-.235-.027-.032-.126-.15-.093-.262.04-.132.243-.172.338-.191.084-.017.164-.021.24-.02.18.138.358.418.738.715.456.357.643.295 1.203.768zM35.377 26.161c.703.471 1.296 1.172 1.576 1.527.493-.409.824-1.244.974-1.552-.01.161-.04.596-.31 1.011-.208.32-.762 1.156-.871 1.657-.237-.74-.529-1.213-.855-1.554-.64-.667-1.408-.701-2.348-1.641-.176-.176-.301-.342-.382-.444.264.17.481.339.607.394.413.181.643.112 1.124.324.202.09.336.179.485.278zm7.345.295c-.068.043-.135.084-.2.123.192-.214 1.542-1.745 2.002-3.099 0 0-.156.493-.352 1.077-.112.427-.228.856-.349 1.289l-.104.36a1.233 1.233 0 0 0-.48 0v-.003l-.029.008-.038.007-.036.013a1.159 1.159 0 0 0-.14.05l-.006.003c-.096.063-.184.12-.268.172zm2.479-15.278c-.091.295-.401.23-.864-.042.201-.138.413-.346.524-.665.132-.38.055-.717.002-.881.401.43.452 1.216.338 1.588z"/>
    </g>
</svg>
