<svg xmlns="http://www.w3.org/2000/svg" width="90" height="87" viewBox="0 0 90 87">
    <path fill="#D10C07" fill-rule="evenodd" d="M27.088 4.56c8.344-5.626 17.158 5.725 17.39 5.884.099.07.288.149.525 0 .82-.529 6.806-8.874 15.297-7.063 4.575.977 8.445 5.768 9.27 12.274-1.719-1.96-3.812-4.577-4.344-4.943-1.208-.836-8.983-3.344-12.294-3.257-1.35.042-6.766 5.764-8.263 5.506-1.453-.247-4.978-4.113-6.41-4.393-1.056-.212-10.002 3.075-10.71 4.473-1.85 3.667-5.3 8.048-7.388 10.66 0-.004 0-.008-.002-.012-1.48-10.477 3.941-17.117 6.929-19.13zm42.627 12.95a22.719 22.719 0 0 1-.711 6.453c-.04.166-.083.331-.128.497-1.266 1.442-2.687 2.637-3.535 2.946-1.803.654-3.887-5.14-3.896-6.297-.022-3.767 1.564-6.531 1.866-8.075.04-.221-2.07 1.223-3.836 7.793-1.053 3.923-3.54 7.22-9.321 8.475-1.684.367 2.379.607 4.886-.162 2.228-.684 1.28 7.117.334 13.225-5.64 3.898-11.913 6.455-16.364 8.206-.433.173-2.635.934-5.407 1.856.415-1.65.928-13.252.65-15.629-.29-2.51-.453-7.14.4-6.921 1.074.281 4.169.516 3.149.07-2.284-1.005-3.738-2.442-4.99-4.556-2.794-4.698-3.155-10.51-3.383-8.983-.71 4.658 2.237 8.468.12 12.227-.848 1.5-3.169.961-6.524-1.12-.58-.36-1.9-1.534-2.335-2.043-.107-.125-.02-.364-.02-.364 1.305-1.839 4.836-5.994 7.987-11.452.558-.966 8.757-3.948 9.174-3.942.76.016 5.322 5.028 6.54 5.237 2.44.422 8.468-6.215 8.878-6.215 3.05-.006 10.183 2.274 11.061 2.795.62.368 3.231 3.533 5.402 5.938l.003.042zm-5.97 17.062a32.573 32.573 0 0 1-4.68 4.941c-.163-3.039-.6-7.532 1.021-12.957.303-1.034 2.392.522 3.878 3.44.135.265 1.695-.397 3.539-1.735-.926 2.085-2.157 4.196-3.757 6.311zM32.572 43.99c-1.735-1.043-7.586-6.438-10.083-12.236a35.833 35.833 0 0 1-1.526-4.286l-.015-.063c3.358 2.987 8.81 5.224 8.865 4.643.072-.727 1.798-3.896 2.136-3.103.34.797.55 3.06.808 8.207.113 2.18.011 4.572-.185 6.838zm-5.18-.317c-.37-.482-10-10.017-10.185-22.098-.026-2.058.21-4.031.643-5.852-.515 4.778.288 10.26 2.601 15.911 2.96 7.238 9.07 12.987 11.85 15.112a101.9 101.9 0 0 1-.97 6.431c-3.766 1.231-7.943 2.541-10.14 3.078-.997.242 3.756.96 15.501-2.028 6.518-1.663 21.144-6.295 30.289-18.093C77.436 22.635 75.852 2.231 60.3.117c-8.482-1.153-15.485 6.607-15.63 6.616-.205.02-7.16-8.42-15.4-6.237-.022 0-.032.007-.052.007-3.3.608-14.2 5.412-13.03 22.178.965 13.817 12.491 22.671 11.203 20.992zm25.225-26.971c-1.389.012-2.462.432-3.245 1.008-.298.217-.413.277.148.208 1.3-.166 1.6-.383 3.056-.318 1.26.053 2.911.555 3.084 1.117.356 3.677-2.989 5.444-3.249 5.43-.099-.002-1.212-.444-1.773-.818-.33-.218-.166.132.128.562.489.696 1.493 1.628 1.622 1.635.344.013 4.772-2.346 4.18-7.448-.228-.723-2.72-1.383-3.951-1.376zM35.614 73.514h-2.152v11.185h6.727c.73 0 1.043-1.9 1.043-1.9h-5.618v-9.285zm-16.287-4.398h-4.735v-2.457h3.105c.615 0 .883-1.604.883-1.604h-3.988v-2.173h3.855c.621 0 .88-1.606.88-1.606h-6.552v9.442h5.672c.621 0 .88-1.602.88-1.602zm6.865 6c-.506 1.74-2.798 9.583-2.798 9.583h2.22s1.827-7.303 2.07-8.318c.182-.773.704-.826.704-.826l1.188 4.719h-2.424l-.474 1.899h3.37l.633 2.526H32.9l-3.275-11.337s-2.934.009-3.432 1.754zm-5.752-.407v7.824s-.74.548-2.035.548c-1.5 0-2.009-.603-2.009-1.712l.004-7.833s-2.155.096-2.155 1.173v6.812c0 1.778 1.001 3.436 4.16 3.436 3.168 0 4.185-1.05 4.185-1.05V73.516s-2.15.116-2.15 1.193zm45.121.708c.73 0 1.032-1.903 1.032-1.903H58.83v11.185h6.731c.73 0 1.032-1.9 1.032-1.9h-5.61v-2.91h3.685c.73 0 1.04-1.896 1.04-1.896h-4.724v-2.576h4.577zM55.13 84.699h2.162V73.514h-2.162v11.185zm-12.96 0h2.16V73.514h-2.16v11.185zm5.487-21.804h1.645c1.203 0 1.632.518 1.649 1.407-.017.882-.446 1.409-1.649 1.409h-1.645v-2.816zm0 4.423h1.645c2.522 0 3.462-1.546 3.462-3.016 0-1.467-.94-3.022-3.462-3.022h-3.468v9.445h1.823v-3.407zm-6.845 2.04c-1.368 0-1.805-.698-1.805-3.357 0-2.667.437-3.357 1.805-3.357 1.378 0 1.814.69 1.814 3.357 0 2.659-.436 3.356-1.814 3.356zm0-8.31c-2.618 0-3.625.73-3.625 4.953 0 4.22 1.007 4.948 3.625 4.948 2.62 0 3.627-.727 3.627-4.948 0-4.223-1.006-4.953-3.627-4.953zM8.295 83.084c-1.629 0-2.15-.822-2.15-3.974 0-3.155.521-3.981 2.15-3.981 1.623 0 2.148.826 2.148 3.981 0 3.152-.525 3.974-2.148 3.974zm0-9.842C5.19 73.242 4 74.107 4 79.11c0 4.645 1.028 5.718 3.654 5.847l.522 1.236c.53 1.175 2.57.72 2.57.72l-.868-2.055h-.003c1.933-.37 2.712-1.708 2.712-5.748 0-5.003-1.196-5.868-4.292-5.868zM46.1 84.699h2.154v-4.81h3.685c.726 0 1.04-1.896 1.04-1.896h-4.725v-2.576h4.566c.733 0 1.041-1.903 1.041-1.903h-7.76v11.185zm19.813-23.545s-2.478.006-2.9 1.477c-.419 1.469-2.363 8.087-2.363 8.087h1.876s1.551-6.165 1.752-7.02c.154-.655.595-.7.595-.7l.99 3.987h-2.038l-.402 1.602h2.848l.538 2.13h1.863l-2.759-9.563zm-6.655 1.728c.617 0 .876-1.606.876-1.606H53.58v9.442h5.68c.616 0 .875-1.602.875-1.602h-4.73v-2.457h3.102c.614 0 .878-1.604.878-1.604h-3.98v-2.173h3.854zM75.15 68.66s-2.043-5.023-2.744-6.377c-.302-.585-.832-1.003-1.374-1.003h-1.454v9.445h1.806v-6.704s1.508 4.388 2.116 5.634c.376.759 1.007 1.07 1.562 1.07h1.907V61.28H75.15v7.38zm7.976 9.822c-.64-.284-2.477-1.103-2.678-1.193-.663-.284-.824-.859-.605-1.36.182-.41.64-.629 1.377-.629.8 0 1.778.265 2.367.324.703.07 1.566-1.456 1.566-1.456s-1.695-.872-3.896-.872c-2.055 0-3.377.868-3.718 2.44-.323 1.484.579 2.908 2.3 3.621.41.172 2.053.88 2.423 1.018.013.01 1.313.525 1.143 1.511-.146.773-.83 1.155-2.058 1.166-.922.007-2.194-.44-2.746-.46-.901-.037-1.595 1.342-1.595 1.342s1.768 1.126 4.384 1.126c2.56 0 4.179-1.186 4.337-3.165.142-1.863-.645-2.53-2.601-3.413zm-11.198.288h-1.944v-3.35l1.944-.003c1.424-.005 1.935.624 1.951 1.674-.016 1.055-.527 1.682-1.951 1.679zm1.736 1.635c1.69-.565 2.376-1.969 2.376-3.314 0-1.735-1.127-3.577-4.112-3.577h-4.1v11.185h2.156v-4.026h1.362l2.305 3.336s.41.694 1.309.694h1.714l-2.988-4.298h-.022zm-53.26-18.118v5.749c0 1.5.843 2.897 3.516 2.897 2.67 0 3.525-.88 3.525-.88V61.28s-1.81.099-1.81 1.007v6.604s-.625.46-1.715.46c-1.27 0-1.696-.51-1.696-1.438V61.3s-1.82.079-1.82.987zm12.198 3.428l-1.642-.004v-2.822l1.642-.004c1.206-.003 1.635.526 1.65 1.415-.015.884-.444 1.42-1.65 1.415zm3.476-1.415c0-1.468-.952-3.024-3.476-3.024h-3.466v9.442h1.824v-3.4h1.15l1.95 2.819s.342.588 1.103.588h1.45l-2.524-3.63-.014.002c1.424-.48 2.003-1.662 2.003-2.797zM64.57 50.33c.01.007.027.01.052.01h.217a.09.09 0 0 0 .05-.01c.01-.008.015-.025.015-.05v-2.983a.25.25 0 0 0-.04-.147c-.026-.038-.078-.056-.158-.056h-.108a.238.238 0 0 0-.133.03c-.032.02-.06.066-.089.136a7.227 7.227 0 0 1-.08.195 9.615 9.615 0 0 0-.116.28c-.042.104-.086.214-.135.331l-.14.34c-.047.11-.092.214-.129.311a6.99 6.99 0 0 1-.098.243 2.055 2.055 0 0 0-.057.135c-.024.062-.05.129-.081.199l-.08.2c-.026.06-.044.106-.057.134h-.018a2.975 2.975 0 0 1-.056-.14l-.08-.204-.085-.203a2.785 2.785 0 0 0-.057-.139 6.193 6.193 0 0 1-.079-.19l-.129-.32a31.53 31.53 0 0 0-.157-.377l-.149-.366a8.56 8.56 0 0 0-.121-.288l-.06-.141c-.027-.07-.057-.116-.086-.136-.03-.02-.074-.03-.136-.03h-.106c-.082 0-.133.018-.158.056a.269.269 0 0 0-.038.147v2.984c0 .024.006.041.014.049.009.007.028.01.05.01h.21c.024 0 .042-.003.05-.01.01-.008.015-.025.015-.05v-2.524h.026l.215.519c.038.08.085.19.144.33l.185.435c.062.151.124.296.181.436l.141.327c.024.063.05.104.078.127.029.024.074.036.135.036h.124c.062 0 .108-.012.131-.036a.315.315 0 0 0 .078-.127 35.079 35.079 0 0 0 .32-.756l.18-.432.136-.325.232-.57h.025v2.56c0 .025.003.042.012.05zm-4.173.01c.022 0 .036-.003.044-.01.008-.008.012-.025.012-.05v-2.867h.959c.024 0 .04-.003.048-.012.007-.007.013-.023.013-.047v-.19a.088.088 0 0 0-.013-.052c-.008-.009-.024-.014-.048-.014h-2.252c-.025 0-.04.005-.044.014-.009.01-.01.027-.01.052v.19c0 .024.001.04.01.047.004.009.02.012.044.012h.927v2.868c0 .024.004.041.012.049.01.007.028.01.05.01h.248z"/>
</svg>
